<?xml version="1.0" encoding="utf-8"?>
<svg version="1.1" id="Layer_1"
xmlns="http://www.w3.org/2000/svg"
xmlns:xlink="http://www.w3.org/1999/xlink"
width="1200px" height="200px"
xml:space="preserve">
<g id="PathID_241" transform="matrix(1, 0, 0, 1, 334.05, -356.85)" opacity="1">
</g>
<g id="PathID_242" transform="matrix(1, 0, 0, 1, 334.05, -356.85)" opacity="1">
</g>
<g id="PathID_243" transform="matrix(2.72261, 0, 0, 2.72261, 210.75, 146.4)" opacity="1">
<path style="fill:#995906;fill-opacity:1" d="M15.9 0.45Q13 0.45 10.1 0.25Q7.2 0.1 4.1 -0.55L4.1 -34.95Q6.55 -35.4 9.45 -35.65Q12.4 -35.9 14.9 -35.9Q18.25 -35.9 21.1 -35.4Q23.95 -34.9 26 -33.75Q28.05 -32.55 29.2 -30.65Q30.35 -28.7 30.35 -25.9Q30.35 -21.65 26.25 -19.2Q29.65 -17.9 30.85 -15.7Q32.1 -13.5 32.1 -10.75Q32.1 -5.15 28 -2.35Q23.95 0.45 15.9 0.45M11.85 -15.45L11.85 -6.3L13.75 -6.15L16 -6.1Q19.6 -6.1 21.8 -7.1Q24 -8.15 24 -10.9Q24 -13.35 22.15 -14.4Q20.3 -15.45 16.9 -15.45L11.85 -15.45M11.85 -21.55L15.75 -21.55Q19.45 -21.55 21.05 -22.5Q22.6 -23.45 22.6 -25.55Q22.6 -27.7 21 -28.55Q19.35 -29.45 16.15 -29.45L13.95 -29.4Q12.8 -29.4 11.85 -29.25L11.85 -21.55" />
</g>
<g id="PathID_244" transform="matrix(2.72261, 0, 0, 2.72261, 210.75, 146.4)" opacity="1">
</g>
<g id="PathID_245" transform="matrix(2.72261, 0, 0, 2.72261, 297.35, 146.4)" opacity="1">
<path style="fill:#995906;fill-opacity:1" d="M13.85 -5.3L16 -5.35L17.65 -5.5L17.65 -11.3L16.25 -11.5L14.6 -11.6Q13.5 -11.6 12.55 -11.5Q11.6 -11.35 10.9 -11Q10.2 -10.65 9.75 -10Q9.35 -9.4 9.35 -8.5Q9.35 -6.7 10.55 -6Q11.75 -5.3 13.85 -5.3M13.25 -27.65Q16.65 -27.65 18.9 -26.85Q21.15 -26.1 22.5 -24.65Q23.85 -23.25 24.4 -21.2Q24.95 -19.15 24.95 -16.65L24.95 -0.75Q23.35 -0.4 20.4 0.05Q17.5 0.55 13.35 0.55Q10.75 0.55 8.6 0.1Q6.5 -0.35 4.95 -1.4Q3.4 -2.45 2.6 -4.15Q1.8 -5.8 1.8 -8.3Q1.8 -10.65 2.75 -12.3Q3.65 -13.9 5.25 -14.9Q6.85 -15.85 8.9 -16.3Q10.95 -16.75 13.15 -16.75Q14.65 -16.75 15.8 -16.6Q16.95 -16.45 17.65 -16.25L17.65 -17Q17.65 -18.95 16.45 -20.1Q15.3 -21.3 12.4 -21.3Q10.45 -21.3 8.55 -21Q6.65 -20.7 5.25 -20.2L4.3 -26.35L5.95 -26.8L8.15 -27.2Q9.3 -27.4 10.6 -27.5Q11.9 -27.65 13.25 -27.65" />
</g>
<g id="PathID_246" transform="matrix(2.72261, 0, 0, 2.72261, 297.35, 146.4)" opacity="1">
</g>
<g id="PathID_247" transform="matrix(2.72261, 0, 0, 2.72261, 367.4, 146.4)" opacity="1">
<path style="fill:#995906;fill-opacity:1" d="M20.85 -13.65Q20.85 -21.05 15.4 -21.05Q14.2 -21.05 13.05 -20.7Q11.9 -20.4 11.2 -19.95L11.2 -6.1L12.65 -5.9Q13.5 -5.8 14.55 -5.8Q17.65 -5.8 19.25 -7.95Q20.85 -10.1 20.85 -13.65M28.6 -13.45Q28.6 -10.25 27.65 -7.6Q26.7 -5 24.9 -3.15Q23.15 -1.3 20.5 -0.3Q17.9 0.65 14.6 0.65L11.7 0.55L8.7 0.2L5.95 -0.25L3.55 -0.85L3.55 -38.5L11.2 -39.7L11.2 -26.3Q12.5 -26.85 13.85 -27.15Q15.25 -27.5 16.85 -27.5Q19.7 -27.5 21.9 -26.5Q24.1 -25.5 25.6 -23.65Q27.05 -21.8 27.85 -19.2Q28.6 -16.65 28.6 -13.45" />
</g>
<g id="PathID_248" transform="matrix(2.72261, 0, 0, 2.72261, 367.4, 146.4)" opacity="1">
</g>
<g id="PathID_249" transform="matrix(2.72261, 0, 0, 2.72261, 444.4, 146.4)" opacity="1">
<path style="fill:#995906;fill-opacity:1" d="M13.85 -5.3L16 -5.35L17.65 -5.5L17.65 -11.3L16.25 -11.5L14.6 -11.6Q13.5 -11.6 12.55 -11.5Q11.6 -11.35 10.9 -11Q10.2 -10.65 9.75 -10Q9.35 -9.4 9.35 -8.5Q9.35 -6.7 10.55 -6Q11.75 -5.3 13.85 -5.3M13.25 -27.65Q16.65 -27.65 18.9 -26.85Q21.15 -26.1 22.5 -24.65Q23.85 -23.25 24.4 -21.2Q24.95 -19.15 24.95 -16.65L24.95 -0.75Q23.35 -0.4 20.4 0.05Q17.5 0.55 13.35 0.55Q10.75 0.55 8.6 0.1Q6.5 -0.35 4.95 -1.4Q3.4 -2.45 2.6 -4.15Q1.8 -5.8 1.8 -8.3Q1.8 -10.65 2.75 -12.3Q3.65 -13.9 5.25 -14.9Q6.85 -15.85 8.9 -16.3Q10.95 -16.75 13.15 -16.75Q14.65 -16.75 15.8 -16.6Q16.95 -16.45 17.65 -16.25L17.65 -17Q17.65 -18.95 16.45 -20.1Q15.3 -21.3 12.4 -21.3Q10.45 -21.3 8.55 -21Q6.65 -20.7 5.25 -20.2L4.3 -26.35L5.95 -26.8L8.15 -27.2Q9.3 -27.4 10.6 -27.5Q11.9 -27.65 13.25 -27.65" />
</g>
<g id="PathID_250" transform="matrix(2.72261, 0, 0, 2.72261, 444.4, 146.4)" opacity="1">
</g>
<g id="PathID_251" transform="matrix(2.41911, 0, 0, 2.41911, 543.7, 142.6)" opacity="1">
<path style="fill:#EC8E14;fill-opacity:1" d="M20.25 0.7Q11.6 0.7 7.1 -4.1Q2.55 -8.9 2.55 -17.75Q2.55 -22.15 3.95 -25.6Q5.3 -29.05 7.7 -31.45Q10.15 -33.85 13.45 -35.05Q16.8 -36.3 20.65 -36.3Q22.95 -36.3 24.75 -35.95Q26.6 -35.6 28 -35.2Q29.4 -34.75 30.3 -34.3L31.65 -33.55L29.35 -27.1Q27.7 -28 25.5 -28.6Q23.35 -29.2 20.55 -29.2Q18.75 -29.2 16.95 -28.6Q15.2 -28 13.85 -26.65Q12.5 -25.3 11.65 -23.15Q10.85 -21 10.85 -17.9Q10.85 -15.45 11.4 -13.35Q11.9 -11.2 13.1 -9.65Q14.3 -8.15 16.25 -7.25Q18.2 -6.35 21 -6.35Q22.7 -6.35 24.1 -6.55Q25.5 -6.75 26.55 -7.05Q27.65 -7.3 28.45 -7.65L29.95 -8.35L32.15 -1.95Q30.45 -0.9 27.4 -0.1Q24.3 0.7 20.25 0.7" />
</g>
<g id="PathID_252" transform="matrix(2.41911, 0, 0, 2.41911, 543.7, 142.6)" opacity="1">
</g>
<g id="PathID_253" transform="matrix(2.41911, 0, 0, 2.41911, 617.7, 142.6)" opacity="1">
<path style="fill:#EC8E14;fill-opacity:1" d="M13.85 -5.3L16 -5.35L17.65 -5.5L17.65 -11.3L16.25 -11.5L14.6 -11.6Q13.5 -11.6 12.55 -11.5Q11.6 -11.35 10.9 -11Q10.2 -10.65 9.75 -10Q9.35 -9.4 9.35 -8.5Q9.35 -6.7 10.55 -6Q11.75 -5.3 13.85 -5.3M13.25 -27.65Q16.65 -27.65 18.9 -26.85Q21.15 -26.1 22.5 -24.65Q23.85 -23.25 24.4 -21.2Q24.95 -19.15 24.95 -16.65L24.95 -0.75Q23.35 -0.4 20.4 0.05Q17.5 0.55 13.35 0.55Q10.75 0.55 8.6 0.1Q6.5 -0.35 4.95 -1.4Q3.4 -2.45 2.6 -4.15Q1.8 -5.8 1.8 -8.3Q1.8 -10.65 2.75 -12.3Q3.65 -13.9 5.25 -14.9Q6.85 -15.85 8.9 -16.3Q10.95 -16.75 13.15 -16.75Q14.65 -16.75 15.8 -16.6Q16.95 -16.45 17.65 -16.25L17.65 -17Q17.65 -18.95 16.45 -20.1Q15.3 -21.3 12.4 -21.3Q10.45 -21.3 8.55 -21Q6.65 -20.7 5.25 -20.2L4.3 -26.35L5.95 -26.8L8.15 -27.2Q9.3 -27.4 10.6 -27.5Q11.9 -27.65 13.25 -27.65" />
</g>
<g id="PathID_254" transform="matrix(2.41911, 0, 0, 2.41911, 617.7, 142.6)" opacity="1">
</g>
<g id="PathID_255" transform="matrix(2.41911, 0, 0, 2.41911, 679.95, 142.6)" opacity="1">
<path style="fill:#EC8E14;fill-opacity:1" d="M19.8 -20.15L17.4 -20.7Q16 -21 14.45 -21Q13.7 -21 12.7 -20.85L11.2 -20.55L11.2 0L3.55 0L3.55 -25.5Q5.6 -26.2 8.4 -26.85Q11.2 -27.5 14.65 -27.5L16.1 -27.4Q17 -27.35 17.85 -27.2L19.6 -26.9Q20.45 -26.7 21.1 -26.45L19.8 -20.15" />
</g>
<g id="PathID_256" transform="matrix(2.41911, 0, 0, 2.41911, 679.95, 142.6)" opacity="1">
</g>
<g id="PathID_257" transform="matrix(2.41911, 0, 0, 2.41911, 725.95, 142.6)" opacity="1">
<path style="fill:#EC8E14;fill-opacity:1" d="M20.85 -13.25Q20.85 -16.8 19.25 -18.9Q17.65 -21.05 14.55 -21.05Q13.5 -21.05 12.65 -20.95Q11.75 -20.9 11.2 -20.75L11.2 -7Q11.9 -6.55 13.05 -6.25Q14.2 -5.95 15.4 -5.95Q20.85 -5.95 20.85 -13.25M28.6 -13.45Q28.6 -10.35 27.85 -7.75Q27.05 -5.2 25.6 -3.35Q24.1 -1.5 21.9 -0.5Q19.7 0.5 16.85 0.5Q15.25 0.5 13.85 0.2Q12.5 -0.1 11.2 -0.65L11.2 9.45L3.55 9.45L3.55 -26L5.95 -26.6L8.7 -27.05Q10.2 -27.3 11.7 -27.4Q13.2 -27.55 14.6 -27.55Q17.9 -27.55 20.5 -26.55Q23.15 -25.55 24.9 -23.7Q26.7 -21.9 27.65 -19.3Q28.6 -16.7 28.6 -13.45" />
</g>
<g id="PathID_258" transform="matrix(2.41911, 0, 0, 2.41911, 725.95, 142.6)" opacity="1">
</g>
<g id="PathID_259" transform="matrix(2.41911, 0, 0, 2.41911, 794.4, 142.6)" opacity="1">
<path style="fill:#EC8E14;fill-opacity:1" d="M2.3 -13.25Q2.3 -16.85 3.4 -19.5Q4.5 -22.2 6.3 -24Q8.1 -25.8 10.4 -26.7Q12.75 -27.65 15.2 -27.65Q20.95 -27.65 24.25 -24.15Q27.6 -20.6 27.6 -13.8L27.55 -12.35L27.45 -10.95L10.15 -10.95Q10.4 -8.6 12.35 -7.2Q14.25 -5.8 17.55 -5.8Q19.65 -5.8 21.65 -6.2Q23.7 -6.6 24.95 -7.15L26 -0.95Q25.4 -0.65 24.35 -0.35Q23.35 -0.05 22.1 0.15Q20.85 0.4 19.4 0.55Q17.95 0.7 16.55 0.7Q12.9 0.7 10.2 -0.35Q7.5 -1.4 5.75 -3.3Q4 -5.15 3.15 -7.7Q2.3 -10.3 2.3 -13.25M20.2 -16.15Q20.15 -17.15 19.9 -18.05Q19.6 -19 19 -19.7Q18.4 -20.4 17.5 -20.9Q16.65 -21.35 15.3 -21.35Q14 -21.35 13.1 -20.9Q12.15 -20.45 11.55 -19.75Q10.95 -19.05 10.6 -18.1Q10.3 -17.15 10.15 -16.15L20.2 -16.15" />
</g>
<g id="PathID_260" transform="matrix(2.41911, 0, 0, 2.41911, 794.4, 142.6)" opacity="1">
</g>
<g id="PathID_261" transform="matrix(2.41911, 0, 0, 2.41911, 860.5, 142.6)" opacity="1">
<path style="fill:#EC8E14;fill-opacity:1" d="M3.55 -26Q5.5 -26.55 8.6 -27.05Q11.65 -27.55 15.05 -27.55Q18.45 -27.55 20.75 -26.65Q23.05 -25.75 24.35 -24.1Q25.7 -22.45 26.25 -20.2Q26.8 -17.95 26.8 -15.2L26.8 0L19.2 0L19.2 -14.25Q19.2 -17.95 18.2 -19.5Q17.25 -21.05 14.6 -21.05L12.85 -20.95Q11.9 -20.9 11.2 -20.75L11.2 0L3.55 0L3.55 -26" />
</g>
<g id="PathID_262" transform="matrix(2.41911, 0, 0, 2.41911, 860.5, 142.6)" opacity="1">
</g>
<g id="PathID_263" transform="matrix(2.41911, 0, 0, 2.41911, 927.2, 142.6)" opacity="1">
<path style="fill:#EC8E14;fill-opacity:1" d="M3.3 -33.65L10.95 -34.85L10.95 -26.9L20.1 -26.9L20.1 -20.55L10.95 -20.55L10.95 -11.1Q10.95 -8.7 11.8 -7.25Q12.65 -5.8 15.2 -5.8Q16.4 -5.8 17.75 -6.05Q19.05 -6.3 20.1 -6.7L21.2 -0.75Q19.8 -0.2 18.1 0.2Q16.4 0.6 13.95 0.6Q10.85 0.6 8.8 -0.2Q6.75 -1.05 5.5 -2.55Q4.3 -4.1 3.8 -6.25Q3.3 -8.4 3.3 -11L3.3 -33.65" />
</g>
<g id="PathID_264" transform="matrix(2.41911, 0, 0, 2.41911, 927.2, 142.6)" opacity="1">
</g>
<g id="PathID_265" transform="matrix(2.41911, 0, 0, 2.41911, 976, 142.6)" opacity="1">
<path style="fill:#EC8E14;fill-opacity:1" d="M13.85 -5.3L16 -5.35L17.65 -5.5L17.65 -11.3L16.25 -11.5L14.6 -11.6Q13.5 -11.6 12.55 -11.5Q11.6 -11.35 10.9 -11Q10.2 -10.65 9.75 -10Q9.35 -9.4 9.35 -8.5Q9.35 -6.7 10.55 -6Q11.75 -5.3 13.85 -5.3M13.25 -27.65Q16.65 -27.65 18.9 -26.85Q21.15 -26.1 22.5 -24.65Q23.85 -23.25 24.4 -21.2Q24.95 -19.15 24.95 -16.65L24.95 -0.75Q23.35 -0.4 20.4 0.05Q17.5 0.55 13.35 0.55Q10.75 0.55 8.6 0.1Q6.5 -0.35 4.95 -1.4Q3.4 -2.45 2.6 -4.15Q1.8 -5.8 1.8 -8.3Q1.8 -10.65 2.75 -12.3Q3.65 -13.9 5.25 -14.9Q6.85 -15.85 8.9 -16.3Q10.95 -16.75 13.15 -16.75Q14.65 -16.75 15.8 -16.6Q16.95 -16.45 17.65 -16.25L17.65 -17Q17.65 -18.95 16.45 -20.1Q15.3 -21.3 12.4 -21.3Q10.45 -21.3 8.55 -21Q6.65 -20.7 5.25 -20.2L4.3 -26.35L5.95 -26.8L8.15 -27.2Q9.3 -27.4 10.6 -27.5Q11.9 -27.65 13.25 -27.65" />
</g>
<g id="PathID_266" transform="matrix(2.41911, 0, 0, 2.41911, 976, 142.6)" opacity="1">
</g>
<g id="PathID_267" transform="matrix(2.41911, 0, 0, 2.41911, 1038.2, 142.6)" opacity="1">
<path style="fill:#EC8E14;fill-opacity:1" d="M19.8 -20.15L17.4 -20.7Q16 -21 14.45 -21Q13.7 -21 12.7 -20.85L11.2 -20.55L11.2 0L3.55 0L3.55 -25.5Q5.6 -26.2 8.4 -26.85Q11.2 -27.5 14.65 -27.5L16.1 -27.4Q17 -27.35 17.85 -27.2L19.6 -26.9Q20.45 -26.7 21.1 -26.45L19.8 -20.15" />
</g>
<g id="PathID_268" transform="matrix(2.41911, 0, 0, 2.41911, 1038.2, 142.6)" opacity="1">
</g>
<g id="PathID_269" transform="matrix(2.41911, 0, 0, 2.41911, 1084.2, 142.6)" opacity="1">
<path style="fill:#EC8E14;fill-opacity:1" d="M27.5 -26.9Q25.2 -19.15 22.65 -12.35Q20.15 -5.5 17.2 0.85Q16.1 3.15 15.05 4.75Q13.95 6.4 12.7 7.45Q11.4 8.5 9.8 8.95Q8.2 9.45 6.05 9.45Q4.25 9.45 2.75 9.15Q1.2 8.8 0.25 8.4L1.55 2.3Q2.75 2.7 3.65 2.85Q4.6 3 5.6 3Q7.65 3 8.75 1.9Q9.85 0.8 10.65 -1.1Q8.05 -6.25 5.4 -12.6Q2.8 -19 0.5 -26.9L8.6 -26.9Q9.1 -24.9 9.8 -22.6L11.25 -17.9L12.8 -13.25L14.3 -9.15Q15 -11 15.7 -13.25L17.1 -17.9L18.45 -22.6L19.6 -26.9L27.5 -26.9" />
</g>
<g id="PathID_270" transform="matrix(2.41911, 0, 0, 2.41911, 1084.2, 142.6)" opacity="1">
</g>
<g id="PathID_271" transform="matrix(1.62511, 0, 0, 1.62511, -422.15, -719.5)" opacity="1">
<path style="fill:#A15B01;fill-opacity:1" d="M288.25 471.5L336.8 501.5L319.75 552.2L278.65 525.9L288.25 471.5" />
</g>
<g id="PathID_272" transform="matrix(1.62511, 0, 0, 1.62511, -422.15, -719.5)" opacity="1">
</g>
<g id="PathID_273" transform="matrix(1.62511, 0, 0, 1.62511, -422.15, -719.5)" opacity="1">
<path style="fill:#FDD21C;fill-opacity:1" d="M322.15 456L342.6 469.1L324.55 477.45L347.55 490.1L336.85 501.5L287.85 471.45L322.15 456" />
</g>
<g id="PathID_274" transform="matrix(1.62511, 0, 0, 1.62511, -422.15, -719.5)" opacity="1">
</g>
<g id="PathID_275" transform="matrix(1.62511, 0, 0, 1.62511, -422.15, -719.5)" opacity="1">
<path style="fill:#F78D03;fill-opacity:1" d="M319.7 551.95L319.6 552L319.6 551.9L319.7 551.95M319.85 551.9L329.85 497.7L347.55 490.15L341.15 526.7L360.1 518.15L357.1 535.2L320.3 552L319.85 551.9" />
</g>
<g id="PathID_276" transform="matrix(1.62511, 0, 0, 1.62511, -422.15, -719.5)" opacity="1">
</g>
<g id="PathID_277" transform="matrix(1.62511, 0, 0, 1.62511, -422.15, -719.5)" opacity="1">
<path style="fill:#A15B01;fill-opacity:1" d="M342.55 469.1L339.6 485.8L324.55 477.45L342.55 469.1" />
</g>
<g id="PathID_278" transform="matrix(1.62511, 0, 0, 1.62511, -422.15, -719.5)" opacity="1">
</g>
<g id="PathID_279" transform="matrix(1.62511, 0, 0, 1.62511, -422.15, -719.5)" opacity="1">
<path style="fill:#A15B01;fill-opacity:1" d="M360.15 518.1L341.15 526.85L344.35 507.9L360.15 518.1" />
</g>
<g id="PathID_280" transform="matrix(1.62511, 0, 0, 1.62511, -422.15, -719.5)" opacity="1">
</g>
<g id="PathID_281" transform="matrix(1.62511, 0, 0, 1.62511, -422.15, -719.5)" opacity="1">
<path style="fill:#FDD21C;fill-opacity:1" d="M349.35 481.9L358 478.6L363.2 482.05L355.45 485.8L349.35 481.9" />
</g>
<g id="PathID_282" transform="matrix(1.62511, 0, 0, 1.62511, -422.15, -719.5)" opacity="1">
</g>
<g id="PathID_283" transform="matrix(1.62511, 0, 0, 1.62511, -422.15, -719.5)" opacity="1">
<path style="fill:#A15B01;fill-opacity:1" d="M355.4 485.85L363.15 482.1L359.75 501.45L351.85 506.25L355.4 485.85" />
</g>
<g id="PathID_284" transform="matrix(1.62511, 0, 0, 1.62511, -422.15, -719.5)" opacity="1">
</g>
<g id="PathID_285" transform="matrix(1.62511, 0, 0, 1.62511, -422.15, -719.5)" opacity="1">
<path style="fill:#FFFFFF;fill-opacity:1" d="M303.25 498.55L310.95 503.4L306.55 529.3L295.15 519.95L303.25 498.55" />
</g>
<g id="PathID_286" transform="matrix(1.62511, 0, 0, 1.62511, -422.15, -719.5)" opacity="1">
</g>
<g id="PathID_287" transform="matrix(1.62511, 0, 0, 1.62511, -422.15, -719.5)" opacity="1">
<path style="fill:#FBC073;fill-opacity:1" d="M299.05 495.85L304.05 499L300.4 519.75L307.5 524.1L306.6 529.3L294.4 522.2L299.05 495.85" />
</g>
<g id="PathID_288" transform="matrix(1.62511, 0, 0, 1.62511, -422.15, -719.5)" opacity="1">
</g>
</svg>
