<?xml version="1.0" encoding="utf-8"?>
<svg version="1.1" id="Layer_1"
xmlns="http://www.w3.org/2000/svg"
xmlns:xlink="http://www.w3.org/1999/xlink"
width="700px" height="250px"
xml:space="preserve">
<g id="PathID_1" transform="matrix(1.4995, 0, 0, 1.4995, 159.15, 164.9)" opacity="1">
<linearGradient
id="LinearGradID_1" gradientUnits="userSpaceOnUse" gradientTransform="matrix(-4.23064e-009, 0.0967857, -0.0225, -9.83506e-010, 81.8, -18.4)" spreadMethod ="pad" x1="-819.2" y1="0" x2="819.2" y2="0" >
<stop  offset="0" style="stop-color:#000000;stop-opacity:1" />
<stop  offset="0.505882" style="stop-color:#3C3C3C;stop-opacity:1" />
<stop  offset="1" style="stop-color:#000000;stop-opacity:1" />
</linearGradient>
<path style="fill:url(#LinearGradID_1) " d="M39.45 -28.05L33.95 -28.05L33.95 -30.2Q33.95 -30.65 33.6 -31Q33.25 -31.35 32.8 -31.35L9.25 -31.35Q8.8 -31.35 8.45 -31Q8.1 -30.65 8.1 -30.2L8.1 -22.3Q8.1 -21.85 8.45 -21.5Q8.8 -21.2 9.25 -21.2L32.8 -21.2Q34.2 -21.2 35.4 -20.7Q36.6 -20.15 37.5 -19.25Q38.45 -18.3 38.95 -17.1Q39.45 -15.9 39.45 -14.55L39.45 -6.65Q39.45 -5.25 38.95 -4.05Q38.45 -2.85 37.5 -1.95Q36.6 -1 35.4 -0.5Q34.2 0 32.8 0L9.25 0Q7.85 0 6.65 -0.5Q5.45 -1 4.55 -1.95Q3.6 -2.85 3.1 -4.05Q2.6 -5.25 2.6 -6.65L2.6 -8.8L8.1 -8.8L8.1 -6.65Q8.1 -6.2 8.45 -5.85Q8.8 -5.5 9.25 -5.5L32.8 -5.5Q33.25 -5.5 33.6 -5.85Q33.95 -6.2 33.95 -6.65L33.95 -14.55Q33.95 -15 33.6 -15.35Q33.25 -15.65 32.8 -15.65L9.25 -15.65Q7.85 -15.65 6.65 -16.15Q5.45 -16.7 4.55 -17.6Q3.6 -18.55 3.1 -19.75Q2.6 -20.95 2.6 -22.3L2.6 -30.2Q2.6 -31.6 3.1 -32.8Q3.6 -34 4.55 -34.9Q5.45 -35.85 6.65 -36.35Q7.85 -36.85 9.25 -36.85L32.8 -36.85Q34.2 -36.85 35.4 -36.35Q36.6 -35.85 37.5 -34.9Q38.45 -34 38.95 -32.8Q39.45 -31.6 39.45 -30.2L39.45 -28.05" />
</g>
<g id="PathID_2" transform="matrix(1.4995, 0, 0, 1.4995, 159.15, 164.9)" opacity="1">
</g>
<g id="PathID_3" transform="matrix(1.4995, 0, 0, 1.4995, 222.2, 164.9)" opacity="1">
<linearGradient
id="LinearGradID_2" gradientUnits="userSpaceOnUse" gradientTransform="matrix(-4.23064e-009, 0.0967857, -0.0225, -9.83506e-010, 39.75, -18.4)" spreadMethod ="pad" x1="-819.2" y1="0" x2="819.2" y2="0" >
<stop  offset="0" style="stop-color:#000000;stop-opacity:1" />
<stop  offset="0.505882" style="stop-color:#3C3C3C;stop-opacity:1" />
<stop  offset="1" style="stop-color:#000000;stop-opacity:1" />
</linearGradient>
<path style="fill:url(#LinearGradID_2) " d="M32.95 -36.85Q34.35 -36.85 35.55 -36.35Q36.75 -35.85 37.65 -34.9Q38.6 -34 39.1 -32.8Q39.6 -31.6 39.6 -30.2L39.6 -6.65Q39.6 -5.25 39.1 -4.05Q38.6 -2.85 37.65 -1.95Q36.75 -1 35.55 -0.5Q34.35 0 32.95 0L9.4 0Q8.05 0 6.85 -0.5Q5.65 -1 4.7 -1.95Q3.8 -2.85 3.25 -4.05Q2.75 -5.25 2.75 -6.65L2.75 -30.2Q2.75 -31.6 3.25 -32.8Q3.8 -34 4.7 -34.9Q5.65 -35.85 6.85 -36.35Q8.05 -36.85 9.4 -36.85L32.95 -36.85M32.95 -5.5Q33.4 -5.5 33.75 -5.85Q34.1 -6.2 34.1 -6.65L34.1 -30.2Q34.1 -30.65 33.75 -31Q33.4 -31.35 32.95 -31.35L9.4 -31.35Q8.95 -31.35 8.6 -31Q8.3 -30.65 8.3 -30.2L8.3 -6.65Q8.3 -6.2 8.6 -5.85Q8.95 -5.5 9.4 -5.5L32.95 -5.5" />
</g>
<g id="PathID_4" transform="matrix(1.4995, 0, 0, 1.4995, 222.2, 164.9)" opacity="1">
</g>
<g id="PathID_5" transform="matrix(1.4995, 0, 0, 1.4995, 285.7, 164.9)" opacity="1">
<linearGradient
id="LinearGradID_3" gradientUnits="userSpaceOnUse" gradientTransform="matrix(-4.23064e-009, 0.0967857, -0.0225, -9.83506e-010, -2.55, -18.4)" spreadMethod ="pad" x1="-819.2" y1="0" x2="819.2" y2="0" >
<stop  offset="0" style="stop-color:#000000;stop-opacity:1" />
<stop  offset="0.505882" style="stop-color:#3C3C3C;stop-opacity:1" />
<stop  offset="1" style="stop-color:#000000;stop-opacity:1" />
</linearGradient>
<path style="fill:url(#LinearGradID_3) " d="M36.75 -36.85L36.75 -31.35L8.5 -31.35L8.5 -21.2L31.2 -21.2L31.2 -15.65L8.5 -15.65L8.5 0L2.95 0L2.95 -36.85L36.75 -36.85" />
</g>
<g id="PathID_6" transform="matrix(1.4995, 0, 0, 1.4995, 285.7, 164.9)" opacity="1">
</g>
<g id="PathID_7" transform="matrix(1.4995, 0, 0, 1.4995, 341.1, 164.9)" opacity="1">
<linearGradient
id="LinearGradID_4" gradientUnits="userSpaceOnUse" gradientTransform="matrix(-4.23064e-009, 0.0967857, -0.0225, -9.83506e-010, -39.45, -18.4)" spreadMethod ="pad" x1="-819.2" y1="0" x2="819.2" y2="0" >
<stop  offset="0" style="stop-color:#000000;stop-opacity:1" />
<stop  offset="0.505882" style="stop-color:#3C3C3C;stop-opacity:1" />
<stop  offset="1" style="stop-color:#000000;stop-opacity:1" />
</linearGradient>
<path style="fill:url(#LinearGradID_4) " d="M33.15 -36.85Q34.55 -36.85 35.75 -36.35Q36.95 -35.85 37.85 -34.9Q38.8 -34 39.3 -32.8Q39.8 -31.6 39.8 -30.2L39.8 0L34.3 0L34.3 -12.9L8.5 -12.9L8.5 0L2.95 0L2.95 -30.2Q2.95 -31.6 3.45 -32.8Q4 -34 4.9 -34.9Q5.85 -35.85 7.05 -36.35Q8.25 -36.85 9.6 -36.85L33.15 -36.85M34.3 -18.4L34.3 -30.2Q34.3 -30.65 33.95 -31Q33.6 -31.35 33.15 -31.35L9.6 -31.35Q9.15 -31.35 8.8 -31Q8.5 -30.65 8.5 -30.2L8.5 -18.4L34.3 -18.4" />
</g>
<g id="PathID_8" transform="matrix(1.4995, 0, 0, 1.4995, 341.1, 164.9)" opacity="1">
</g>
<g id="PathID_9" transform="matrix(5.21677, 0, 0, 3.15369, 220.25, 62.75)" opacity="1">
<linearGradient
id="LinearGradID_5" gradientUnits="userSpaceOnUse" gradientTransform="matrix(-1.9049e-009, 0.0435791, -0.0435791, -1.9049e-009, 0, 0)" spreadMethod ="pad" x1="-819.2" y1="0" x2="819.2" y2="0" >
<stop  offset="0" style="stop-color:#FFFFFF;stop-opacity:1" />
<stop  offset="0.498039" style="stop-color:#FFA500;stop-opacity:1" />
<stop  offset="0.501961" style="stop-color:#CD7300;stop-opacity:1" />
<stop  offset="1" style="stop-color:#FFA500;stop-opacity:1" />
</linearGradient>
<path style="fill:url(#LinearGradID_5) " d="M-35.7 9.15L-22.3 -9.15L35.7 9.15L-10 9.15L-21.95 -3.6L-32.35 9.15L-35.7 9.15" />
</g>
<g id="PathID_10" transform="matrix(5.21677, 0, 0, 3.15369, 220.25, 62.75)" opacity="1">
</g>
<g id="PathID_11" transform="matrix(3.15369, 0, 0, 3.15369, 228.75, 187.4)" opacity="1">
<linearGradient
id="LinearGradID_6" gradientUnits="userSpaceOnUse" gradientTransform="matrix(-3.2949e-009, 0.0753784, -0.0753784, -3.2949e-009, 0, 0)" spreadMethod ="pad" x1="-819.2" y1="0" x2="819.2" y2="0" >
<stop  offset="0" style="stop-color:#FFFFFF;stop-opacity:1" />
<stop  offset="0.498039" style="stop-color:#FFA500;stop-opacity:1" />
<stop  offset="0.501961" style="stop-color:#CD7300;stop-opacity:1" />
<stop  offset="1" style="stop-color:#FFA500;stop-opacity:1" />
</linearGradient>
<path style="fill:url(#LinearGradID_6) " d="M61.75 -2.3L-61.75 3.15L-61.75 -3.15L61.75 -3.15L61.75 -2.3" />
</g>
<g id="PathID_12" transform="matrix(3.15369, 0, 0, 3.15369, 228.75, 187.4)" opacity="1">
</g>
<g id="PathID_13" transform="matrix(0.564475, 0, 0, 0.564475, 60.4, 91.75)" opacity="1">
<linearGradient
id="LinearGradID_7" gradientUnits="userSpaceOnUse" gradientTransform="matrix(0.0915527, 0, -0, 0.0915527, 75, 64.15)" spreadMethod ="pad" x1="-819.2" y1="0" x2="819.2" y2="0" >
<stop  offset="0" style="stop-color:#FFA500;stop-opacity:1" />
<stop  offset="0.505882" style="stop-color:#FFE13C;stop-opacity:1" />
<stop  offset="1" style="stop-color:#FFA500;stop-opacity:1" />
</linearGradient>
<path style="fill:url(#LinearGradID_7) " d="M147.75 44.2Q148.6 44.2 149.35 44.8Q150 45.45 150 46.4L150 126.15Q150 127.15 149.35 127.65Q148.65 128.35 147.75 128.35L136.75 128.35Q135.9 128.35 135.2 127.65Q134.6 127.15 134.6 126.15L134.6 46.4Q134.6 45.45 135.2 44.8Q135.95 44.2 136.75 44.2L147.75 44.2M123.5 0.55Q124.1 1.15 124.1 2L124.1 61.95Q124.1 62.65 123.5 63.4Q122.95 64 122.1 64L27.95 64Q27.2 64 26.5 63.4Q25.95 62.7 25.95 61.95L25.95 2Q25.95 1.1 26.5 0.55Q27.2 0 27.95 0L122.1 0Q122.95 0 123.5 0.55M126.6 90.9L126.1 90.95L124.4 91.2L25.6 91.2L23.45 90.9L23.45 68.75L23.85 68.65L25.6 68.45L124.4 68.45L126.6 68.75L126.6 90.9M128.4 97Q129.25 97.5 129.55 98.25Q129.95 98.8 129.95 99.4L129.95 114.4Q129.95 115.2 129.55 115.7Q129 116.7 127.5 117.4Q126 118.2 123.75 118.2L26.3 118.2Q23.55 118.2 21.6 116.9L20.4 115.7Q20.05 114.95 20.05 114.4L20.05 99.4Q20.05 98.95 20.4 98.25Q21.15 97.05 22.55 96.45Q24.15 95.65 26.15 95.6L124.1 95.6Q126.65 95.65 128.4 97M13.25 44.2Q14.1 44.2 14.85 44.8Q15.5 45.55 15.5 46.4L15.5 126.15Q15.5 127.05 14.85 127.65Q14.15 128.35 13.25 128.35L2.2 128.35Q1.35 128.35 0.7 127.65Q0 127.1 0 126.15L0 46.4Q0 45.5 0.7 44.8Q1.45 44.2 2.2 44.2L13.25 44.2" />
</g>
<g id="PathID_14" transform="matrix(0.564475, 0, 0, 0.564475, 60.4, 91.75)" opacity="1">
</g>
<g id="PathID_15" transform="matrix(1.4995, 0, 0, 1.4995, 409.8, 164.9)" opacity="1">
<linearGradient
id="LinearGradID_8" gradientUnits="userSpaceOnUse" gradientTransform="matrix(-4.41992e-009, 0.101116, -0.0225, -9.83506e-010, 85.55, -18.4)" spreadMethod ="pad" x1="-819.2" y1="0" x2="819.2" y2="0" >
<stop  offset="0" style="stop-color:#FFFFFF;stop-opacity:1" />
<stop  offset="0.498039" style="stop-color:#A66C00;stop-opacity:1" />
<stop  offset="0.501961" style="stop-color:#743A00;stop-opacity:1" />
<stop  offset="1" style="stop-color:#A66C00;stop-opacity:1" />
</linearGradient>
<path style="fill:url(#LinearGradID_8) " d="M39.7 -28L34.2 -28L34.2 -30.2Q34.2 -30.65 33.85 -31Q33.5 -31.35 33.05 -31.35L9.5 -31.35Q9.05 -31.35 8.7 -31Q8.4 -30.65 8.4 -30.2L8.4 -6.65Q8.4 -6.2 8.7 -5.85Q9.05 -5.5 9.5 -5.5L33.05 -5.5Q33.5 -5.5 33.85 -5.85Q34.2 -6.2 34.2 -6.65L34.2 -14.65L25.5 -14.65L25.5 -20.15L39.7 -20.15L39.7 -6.65Q39.7 -5.25 39.2 -4.05Q38.7 -2.85 37.75 -1.95Q36.85 -1 35.65 -0.5Q34.45 0 33.05 0L9.5 0Q8.15 0 6.95 -0.5Q5.75 -1 4.8 -1.95Q3.9 -2.85 3.35 -4.05Q2.85 -5.25 2.85 -6.65L2.85 -30.2Q2.85 -31.6 3.35 -32.8Q3.9 -34 4.8 -34.9Q5.75 -35.85 6.95 -36.35Q8.15 -36.85 9.5 -36.85L33.05 -36.85Q34.45 -36.85 35.65 -36.35Q36.85 -35.85 37.75 -34.9Q38.7 -34 39.2 -32.8Q39.7 -31.6 39.7 -30.2L39.7 -28" />
</g>
<g id="PathID_16" transform="matrix(1.4995, 0, 0, 1.4995, 409.8, 164.9)" opacity="1">
</g>
<g id="PathID_17" transform="matrix(1.4995, 0, 0, 1.4995, 473.5, 164.9)" opacity="1">
<linearGradient
id="LinearGradID_9" gradientUnits="userSpaceOnUse" gradientTransform="matrix(-4.41992e-009, 0.101116, -0.0225, -9.83506e-010, 43.1, -18.4)" spreadMethod ="pad" x1="-819.2" y1="0" x2="819.2" y2="0" >
<stop  offset="0" style="stop-color:#FFFFFF;stop-opacity:1" />
<stop  offset="0.498039" style="stop-color:#A66C00;stop-opacity:1" />
<stop  offset="0.501961" style="stop-color:#743A00;stop-opacity:1" />
<stop  offset="1" style="stop-color:#A66C00;stop-opacity:1" />
</linearGradient>
<path style="fill:url(#LinearGradID_9) " d="M40.65 -36.85L40.65 0L35.1 0L35.1 -15.65L8.45 -15.65L8.45 0L2.9 0L2.9 -36.85L8.45 -36.85L8.45 -21.2L35.1 -21.2L35.1 -36.85L40.65 -36.85" />
</g>
<g id="PathID_18" transform="matrix(1.4995, 0, 0, 1.4995, 473.5, 164.9)" opacity="1">
</g>
<g id="PathID_19" transform="matrix(1.4995, 0, 0, 1.4995, 538.75, 164.9)" opacity="1">
<linearGradient
id="LinearGradID_10" gradientUnits="userSpaceOnUse" gradientTransform="matrix(-4.41992e-009, 0.101116, -0.0225, -9.83506e-010, -0.4, -18.4)" spreadMethod ="pad" x1="-819.2" y1="0" x2="819.2" y2="0" >
<stop  offset="0" style="stop-color:#FFFFFF;stop-opacity:1" />
<stop  offset="0.498039" style="stop-color:#A66C00;stop-opacity:1" />
<stop  offset="0.501961" style="stop-color:#743A00;stop-opacity:1" />
<stop  offset="1" style="stop-color:#A66C00;stop-opacity:1" />
</linearGradient>
<path style="fill:url(#LinearGradID_10) " d="M33.15 -36.85Q34.55 -36.85 35.75 -36.35Q36.95 -35.85 37.85 -34.9Q38.8 -34 39.3 -32.8Q39.8 -31.6 39.8 -30.2L39.8 0L34.3 0L34.3 -12.9L8.5 -12.9L8.5 0L2.95 0L2.95 -30.2Q2.95 -31.6 3.45 -32.8Q4 -34 4.9 -34.9Q5.85 -35.85 7.05 -36.35Q8.25 -36.85 9.6 -36.85L33.15 -36.85M34.3 -18.4L34.3 -30.2Q34.3 -30.65 33.95 -31Q33.6 -31.35 33.15 -31.35L9.6 -31.35Q9.15 -31.35 8.8 -31Q8.5 -30.65 8.5 -30.2L8.5 -18.4L34.3 -18.4" />
</g>
<g id="PathID_20" transform="matrix(1.4995, 0, 0, 1.4995, 538.75, 164.9)" opacity="1">
</g>
<g id="PathID_21" transform="matrix(1.4995, 0, 0, 1.4995, 602.95, 164.9)" opacity="1">
<linearGradient
id="LinearGradID_11" gradientUnits="userSpaceOnUse" gradientTransform="matrix(-4.41992e-009, 0.101116, -0.0225, -9.83506e-010, -43.2, -18.4)" spreadMethod ="pad" x1="-819.2" y1="0" x2="819.2" y2="0" >
<stop  offset="0" style="stop-color:#FFFFFF;stop-opacity:1" />
<stop  offset="0.498039" style="stop-color:#A66C00;stop-opacity:1" />
<stop  offset="0.501961" style="stop-color:#743A00;stop-opacity:1" />
<stop  offset="1" style="stop-color:#A66C00;stop-opacity:1" />
</linearGradient>
<path style="fill:url(#LinearGradID_11) " d="M39.65 -19.8Q39.65 -18.4 39.15 -17.2Q38.65 -16 37.7 -15.1Q36.8 -14.2 35.6 -13.7Q34.4 -13.15 33 -13.15L29.25 -13.15L39.65 -0.75L39.65 0L33.1 0L22.05 -13.15L9.45 -13.15L8.9 -13.15L8.35 -13.25L8.35 0L2.8 0L2.8 -36.8L33 -36.8Q34.4 -36.8 35.6 -36.25Q36.8 -35.75 37.7 -34.85Q38.65 -33.95 39.15 -32.75Q39.65 -31.55 39.65 -30.15L39.65 -19.8M33 -18.65Q33.45 -18.65 33.8 -19Q34.15 -19.35 34.15 -19.8L34.15 -30.15Q34.15 -30.6 33.8 -30.95Q33.45 -31.3 33 -31.3L9.45 -31.3Q9 -31.3 8.65 -30.95Q8.35 -30.6 8.35 -30.15L8.35 -19.8Q8.35 -19.35 8.65 -19Q9 -18.65 9.45 -18.65L33 -18.65" />
</g>
<g id="PathID_22" transform="matrix(1.4995, 0, 0, 1.4995, 602.95, 164.9)" opacity="1">
</g>
</svg>
