<?xml version="1.0" encoding="utf-8"?>
<svg version="1.1" id="Layer_1"
xmlns="http://www.w3.org/2000/svg"
xmlns:xlink="http://www.w3.org/1999/xlink"
width="1500px" height="300px"
xml:space="preserve">
<g id="PathID_25" transform="matrix(1.13185, 0, 0, 1.06095, 93.2, -409)" opacity="1">
</g>
<g id="PathID_26" transform="matrix(1.13185, 0, 0, 1.06095, 93.2, -409)" opacity="1">
</g>
<g id="PathID_27" transform="matrix(1.13185, 0, 0, 0.468792, 197.9, 44.4)" opacity="1">
<path style="fill:#8C6DD7;fill-opacity:1" d="M-131 -21.5L131 -21.5L131 21.5L-131 21.5L-131 -21.5" />
</g>
<g id="PathID_28" transform="matrix(1.13185, 0, 0, 0.468792, 197.9, 44.4)" opacity="1">
</g>
<g id="PathID_29" transform="matrix(1.13185, 0, 0, 1.06095, 197.9, 253.4)" opacity="1">
<path style="fill:#8C6DD7;fill-opacity:1" d="M-131 -21.5L131 -21.5L131 21.5L-131 21.5L-131 -21.5" />
</g>
<g id="PathID_30" transform="matrix(1.13185, 0, 0, 1.06095, 197.9, 253.4)" opacity="1">
</g>
<g id="PathID_31" transform="matrix(1.27072, 0, 0, 1.06095, 152.1, 143.25)" opacity="1">
<linearGradient
id="LinearGradID_3" gradientUnits="userSpaceOnUse" gradientTransform="matrix(-4.29537e-009, 0.0982666, -0.0982666, -4.29537e-009, 0, 0)" spreadMethod ="pad" x1="-819.2" y1="0" x2="819.2" y2="0" >
<stop  offset="0" style="stop-color:#D9005B;stop-opacity:1" />
<stop  offset="0.505882" style="stop-color:#FF3C97;stop-opacity:1" />
<stop  offset="1" style="stop-color:#D9005B;stop-opacity:1" />
</linearGradient>
<path style="fill:url(#LinearGradID_3) " d="M-80.5 -74L80.5 -74L80.5 74L-80.5 74L-80.5 -74" />
</g>
<g id="PathID_32" transform="matrix(1.27072, 0, 0, 1.06095, 152.1, 143.25)" opacity="1">
</g>
<g id="PathID_33" transform="matrix(0.500309, 0, 0, 1.06095, 304.9, 143.25)" opacity="1">
<linearGradient
id="LinearGradID_4" gradientUnits="userSpaceOnUse" gradientTransform="matrix(-4.29537e-009, 0.0982666, -0.0982666, -4.29537e-009, 0, 0)" spreadMethod ="pad" x1="-819.2" y1="0" x2="819.2" y2="0" >
<stop  offset="0" style="stop-color:#F3C62A;stop-opacity:1" />
<stop  offset="0.505882" style="stop-color:#FFFF66;stop-opacity:1" />
<stop  offset="1" style="stop-color:#F3C62A;stop-opacity:1" />
</linearGradient>
<path style="fill:url(#LinearGradID_4) " d="M-80.5 -74L80.5 -74L80.5 74L-80.5 74L-80.5 -74" />
</g>
<g id="PathID_34" transform="matrix(0.500309, 0, 0, 1.06095, 304.9, 143.25)" opacity="1">
</g>
<g id="PathID_35" transform="matrix(4.9847, 0, 0, 4.73347, 379.25, 214)" opacity="1">
<path style="fill:#3B046D;fill-opacity:1" d="M5.7 -3.6Q1.7 -7.6 1.7 -14.25Q1.7 -20.9 5.65 -24.85Q9.65 -28.85 15.95 -28.85Q21.15 -28.85 24.8 -26.25Q28.45 -23.7 29.6 -18.85L20.15 -18.85Q18.9 -21.45 16.1 -21.45Q13.35 -21.45 11.95 -19.45Q10.6 -17.5 10.6 -14.25Q10.6 -11.05 11.95 -9.05Q13.35 -7.1 15.95 -7.1Q17.6 -7.1 18.5 -7.65Q19.45 -8.2 20.15 -9.65L29.6 -9.65Q28.45 -5.05 24.75 -2.3Q21.05 0.4 15.95 0.4Q9.65 0.4 5.7 -3.6" />
</g>
<g id="PathID_36" transform="matrix(4.9847, 0, 0, 4.73347, 379.25, 214)" opacity="1">
</g>
<g id="PathID_37" transform="matrix(4.9847, 0, 0, 4.73347, 532.25, 214)" opacity="1">
<path style="fill:#3B046D;fill-opacity:1" d="M20.95 -8.95Q22.7 -10.8 22.7 -14.25Q22.7 -17.75 20.9 -19.55Q19.1 -21.4 16.65 -21.4Q14.2 -21.4 12.45 -19.55Q10.7 -17.75 10.7 -14.25Q10.7 -10.8 12.5 -8.95Q14.3 -7.1 16.75 -7.1Q19.25 -7.1 20.95 -8.95M6.1 -3.65Q1.75 -7.7 1.75 -14.3Q1.75 -20.9 6.05 -24.85Q10.35 -28.85 16.7 -28.85Q23.05 -28.85 27.3 -24.85Q31.6 -20.9 31.6 -14.3Q31.6 -7.7 27.35 -3.65Q23.1 0.4 16.75 0.4Q10.4 0.4 6.1 -3.65" />
</g>
<g id="PathID_38" transform="matrix(4.9847, 0, 0, 4.73347, 532.25, 214)" opacity="1">
</g>
<g id="PathID_39" transform="matrix(4.9847, 0, 0, 4.73347, 698.95, 214)" opacity="1">
<path style="fill:#3B046D;fill-opacity:1" d="M21.2 -9.05Q23.1 -10.9 23.1 -14.25Q23.1 -17.65 21.2 -19.45Q19.35 -21.25 16.85 -21.25Q14.4 -21.25 12.5 -19.4Q10.6 -17.6 10.6 -14.2Q10.6 -10.85 12.5 -9Q14.4 -7.2 16.85 -7.2Q19.35 -7.2 21.2 -9.05M5.5 -3.7Q1.7 -7.8 1.7 -14.2Q1.7 -20.6 5.5 -24.7Q9.3 -28.85 14.75 -28.85Q20.2 -28.85 23.1 -24.8L23.1 -37.85L31.85 -37.85L31.85 0L23.1 0L23.1 -4.1Q19.95 0.4 14.6 0.4Q9.3 0.4 5.5 -3.7" />
</g>
<g id="PathID_40" transform="matrix(4.9847, 0, 0, 4.73347, 698.95, 214)" opacity="1">
</g>
<g id="PathID_41" transform="matrix(4.9847, 0, 0, 4.73347, 877.05, 214)" opacity="1">
<path style="fill:#3B046D;fill-opacity:1" d="M15.95 0.4Q9.7 0.4 5.7 -3.6Q1.7 -7.65 1.7 -14.3Q1.7 -20.95 5.65 -24.9Q9.65 -28.85 15.95 -28.85Q22.25 -28.85 26.4 -24.95Q30.55 -21.05 30.55 -14.15Q30.55 -12.65 30.35 -11.4L10.7 -11.4Q10.95 -9.5 12.35 -8.3Q13.8 -7.1 15.45 -7.1Q17.15 -7.1 17.95 -7.4Q18.75 -7.75 19.15 -8.05Q19.55 -8.4 20.15 -9.2L29.6 -9.2Q28.4 -4.9 24.7 -2.25Q21 0.4 15.95 0.4M21.45 -16.85Q21.2 -18.85 19.65 -20.1Q18.15 -21.4 16.05 -21.4Q13.95 -21.4 12.5 -20.1Q11.1 -18.85 10.75 -16.85L21.45 -16.85" />
</g>
<g id="PathID_42" transform="matrix(4.9847, 0, 0, 4.73347, 877.05, 214)" opacity="1">
</g>
<g id="PathID_43" transform="matrix(4.9847, 0, 0, 4.73347, 1038.3, 214)" opacity="1">
<path style="fill:#3B046D;fill-opacity:1" d="M16.3 -28.55L16.3 -21.25L12.65 -21.25L12.65 0L3.9 0L3.9 -21.25L1.25 -21.25L1.25 -28.55L3.9 -28.55L3.9 -29.6Q3.9 -35.05 6.8 -37.55Q9.7 -40.05 15.9 -40.05L15.9 -32.65Q14.15 -32.65 13.4 -31.95Q12.65 -31.3 12.65 -29.6L12.65 -28.55L16.3 -28.55" />
</g>
<g id="PathID_44" transform="matrix(4.9847, 0, 0, 4.73347, 1038.3, 214)" opacity="1">
</g>
<g id="PathID_45" transform="matrix(4.9847, 0, 0, 4.73347, 1124, 214)" opacity="1">
<path style="fill:#3B046D;fill-opacity:1" d="M11.3 -0.55L0.2 -28.55L10.1 -28.55L16.45 -9.85L23.4 -28.55L32.6 -28.55L14.35 13.65L5.2 13.65L11.3 -0.55" />
</g>
<g id="PathID_46" transform="matrix(4.9847, 0, 0, 4.73347, 1124, 214)" opacity="1">
</g>
<g id="PathID_47" transform="matrix(4.9847, 0, 0, 4.73347, 1287.5, 214)" opacity="1">
<path style="fill:#3B046D;fill-opacity:1" d="M12.55 -28.55L12.55 -24.35Q15.3 -28.85 21.2 -28.85Q26.15 -28.85 29.2 -25.55Q32.25 -22.3 32.25 -16.65L32.25 0L23.55 0L23.55 -15.5Q23.55 -18.25 22.05 -19.75Q20.6 -21.25 18.05 -21.25Q15.5 -21.25 14 -19.75Q12.55 -18.25 12.55 -15.5L12.55 0L3.8 0L3.8 -28.55L12.55 -28.55" />
</g>
<g id="PathID_48" transform="matrix(4.9847, 0, 0, 4.73347, 1287.5, 214)" opacity="1">
</g>
</svg>
