<?xml version="1.0" encoding="utf-8"?>
<svg version="1.1" id="Layer_1"
xmlns="http://www.w3.org/2000/svg"
xmlns:xlink="http://www.w3.org/1999/xlink"
width="2500px" height="550px"
xml:space="preserve">
<g id="PathID_9" transform="matrix(3.19046, 0, 0, 2.12122, 209.8, 247.4)" opacity="1">
<path style="fill:#4A30C7;fill-opacity:1" d="M51.5 -51.5L51.5 51.5L-51.5 51.5L-51.5 -51.5L51.5 -51.5" />
</g>
<g id="PathID_10" transform="matrix(3.19046, 0, 0, 2.12122, 209.8, 247.4)" opacity="1">
</g>
<g id="PathID_11" transform="matrix(4.50459, 0, 0, 0.148594, 277, 115.55)" opacity="1">
<path style="fill:#231081;fill-opacity:1" d="M51.5 -51.5L51.5 51.5L-51.5 51.5L-51.5 -51.5L51.5 -51.5" />
</g>
<g id="PathID_12" transform="matrix(4.50459, 0, 0, 0.148594, 277, 115.55)" opacity="1">
</g>
<g id="PathID_13" transform="matrix(1.12698, 0, 0, 2.12962, 451.1, 246.85)" opacity="1">
<path style="fill:#3CCDF0;fill-opacity:1" d="M51.5 -51.5L51.5 51.5L-51.5 51.5L-51.5 -51.5L51.5 -51.5" />
</g>
<g id="PathID_14" transform="matrix(1.12698, 0, 0, 2.12962, 451.1, 246.85)" opacity="1">
</g>
<g id="PathID_15" transform="matrix(4.50459, 0, 0, 0.722063, 277, 412.25)" opacity="1">
<path style="fill:#050530;fill-opacity:1" d="M51.5 -51.5L51.5 51.5L-51.5 51.5L-51.5 -51.5L51.5 -51.5" />
</g>
<g id="PathID_16" transform="matrix(4.50459, 0, 0, 0.722063, 277, 412.25)" opacity="1">
</g>
<g id="PathID_17" transform="matrix(8.68964, 0, 0, 8.68964, 565.45, 426.25)" opacity="1">
<path style="fill:#10104A;fill-opacity:1" d="M20.05 0.35Q12.4 0.35 7.15 -4.75Q1.95 -9.9 1.95 -17.75Q1.95 -25.65 7.15 -30.7Q12.4 -35.8 20.05 -35.8Q25.6 -35.8 29.9 -33.2Q34.25 -30.6 36.3 -25.7L30.65 -25.7Q27.45 -31.65 20.05 -31.65Q14.25 -31.65 10.5 -27.85Q6.75 -24.05 6.75 -17.75Q6.75 -11.45 10.5 -7.6Q14.25 -3.75 20.05 -3.75Q23.6 -3.75 26.35 -5.3Q29.1 -6.9 30.65 -9.8L36.3 -9.8Q34.25 -4.9 29.9 -2.25Q25.6 0.35 20.05 0.35" />
</g>
<g id="PathID_18" transform="matrix(8.68964, 0, 0, 8.68964, 565.45, 426.25)" opacity="1">
</g>
<g id="PathID_19" transform="matrix(8.68964, 0, 0, 8.68964, 911.2, 426.25)" opacity="1">
<path style="fill:#10104A;fill-opacity:1" d="M15.8 -3.35Q19.75 -3.35 22.6 -6.2Q25.5 -9.05 25.5 -14.05Q25.5 -19.05 22.75 -21.85Q20 -24.7 16 -24.7Q12.05 -24.7 9.4 -21.85Q6.75 -19.05 6.75 -14Q6.75 -9 9.3 -6.15Q11.85 -3.35 15.8 -3.35M5.85 -3.5Q1.95 -7.5 1.95 -14Q1.95 -20.5 6 -24.5Q10.05 -28.55 16.15 -28.55Q22.25 -28.55 26.3 -24.5Q30.35 -20.5 30.35 -14Q30.35 -7.55 26.1 -3.5Q21.9 0.5 15.8 0.5Q9.7 0.5 5.85 -3.5" />
</g>
<g id="PathID_20" transform="matrix(8.68964, 0, 0, 8.68964, 911.2, 426.25)" opacity="1">
</g>
<g id="PathID_21" transform="matrix(8.68964, 0, 0, 8.68964, 1192.25, 426.25)" opacity="1">
<path style="fill:#10104A;fill-opacity:1" d="M22.95 -6.4Q25.75 -9.25 25.75 -14Q25.75 -18.75 22.95 -21.6Q20.15 -24.5 16.2 -24.5Q12.3 -24.5 9.5 -21.7Q6.75 -18.95 6.75 -14.2Q6.75 -9.45 9.55 -6.45Q12.35 -3.5 16.25 -3.5Q20.15 -3.5 22.95 -6.4M15.4 0.5Q9.65 0.5 5.8 -3.6Q1.95 -7.75 1.95 -14.15Q1.95 -20.6 5.75 -24.55Q9.6 -28.55 15.4 -28.55Q18.95 -28.55 21.65 -26.85Q24.35 -25.15 25.75 -22.45L25.75 -37.85L30.45 -37.85L30.45 0L25.75 0L25.75 -5.7Q24.35 -2.95 21.65 -1.2Q18.95 0.5 15.4 0.5" />
</g>
<g id="PathID_22" transform="matrix(8.68964, 0, 0, 8.68964, 1192.25, 426.25)" opacity="1">
</g>
<g id="PathID_23" transform="matrix(8.68964, 0, 0, 8.68964, 1490.25, 426.25)" opacity="1">
<path style="fill:#10104A;fill-opacity:1" d="M15.6 0.5Q9.55 0.5 5.75 -3.5Q1.95 -7.5 1.95 -14.05Q1.95 -20.6 5.8 -24.55Q9.65 -28.55 15.75 -28.55Q21.9 -28.55 25.6 -24.75Q29.3 -21 29.3 -15.2Q29.3 -13.7 29.1 -12.4L6.75 -12.4Q6.95 -8.2 9.35 -5.75Q11.8 -3.35 15.6 -3.35Q18.45 -3.35 20.4 -4.6Q22.4 -5.9 23.3 -8L28.35 -8Q27 -4.35 23.75 -1.9Q20.5 0.5 15.6 0.5M24.45 -15.8Q24.4 -19.85 21.9 -22.25Q19.4 -24.7 15.65 -24.7Q11.95 -24.7 9.5 -22.3Q7.05 -19.95 6.8 -15.8L24.45 -15.8" />
</g>
<g id="PathID_24" transform="matrix(8.68964, 0, 0, 8.68964, 1490.25, 426.25)" opacity="1">
</g>
<g id="PathID_25" transform="matrix(8.68964, 0, 0, 8.68964, 1762.05, 426.25)" opacity="1">
<path style="fill:#10104A;fill-opacity:1" d="M15.4 -28.1L15.4 -24.3L9.5 -24.3L9.5 0L4.8 0L4.8 -24.3L1.15 -24.3L1.15 -28.1L4.8 -28.1L4.8 -30.45Q4.8 -35.05 7.25 -37.15Q9.7 -39.25 15 -39.25L15 -35.45Q11.9 -35.45 10.7 -34.3Q9.5 -33.15 9.5 -30.45L9.5 -28.1L15.4 -28.1" />
</g>
<g id="PathID_26" transform="matrix(8.68964, 0, 0, 8.68964, 1762.05, 426.25)" opacity="1">
</g>
<g id="PathID_27" transform="matrix(8.68964, 0, 0, 8.68964, 1908.75, 426.25)" opacity="1">
<path style="fill:#10104A;fill-opacity:1" d="M11.7 -0.45L0.6 -28.1L5.7 -28.1L14.3 -5.35L23.05 -28.1L27.9 -28.1L10.95 13.2L6.1 13.2L11.7 -0.45" />
</g>
<g id="PathID_28" transform="matrix(8.68964, 0, 0, 8.68964, 1908.75, 426.25)" opacity="1">
</g>
<g id="PathID_29" transform="matrix(8.68964, 0, 0, 8.68964, 2156.25, 426.25)" opacity="1">
<path style="fill:#10104A;fill-opacity:1" d="M8.45 -28.1L8.45 -23.55Q11.35 -28.55 17.65 -28.55Q22.3 -28.55 25.4 -25.45Q28.55 -22.35 28.55 -16.6L28.55 0L23.95 0L23.95 -15.85Q23.95 -20.1 21.9 -22.3Q19.85 -24.5 16.2 -24.5Q12.6 -24.5 10.5 -22.3Q8.45 -20.1 8.45 -15.85L8.45 0L3.8 0L3.8 -28.1L8.45 -28.1" />
</g>
<g id="PathID_30" transform="matrix(8.68964, 0, 0, 8.68964, 2156.25, 426.25)" opacity="1">
</g>
</svg>
