<?xml version="1.0" encoding="utf-8"?>
<svg version="1.1" id="Layer_1"
xmlns="http://www.w3.org/2000/svg"
xmlns:xlink="http://www.w3.org/1999/xlink"
width="450px" height="200px"
xml:space="preserve">
<g id="PathID_1" transform="matrix(1, 0, 0, 1, 141, -357)" opacity="1">
</g>
<g id="PathID_2" transform="matrix(1, 0, 0, 1, 141, -357)" opacity="1">
</g>
<g id="PathID_3" transform="matrix(0.930375, 0, 0, 0.930375, 55.4, 170.7)" opacity="1">
<path style="fill:#A15B01;fill-opacity:1" d="M8.15 0Q7 0 6.15 -0.8Q5.3 -1.7 5.3 -2.8L5.3 -33Q5.3 -34.2 6.15 -35Q6.95 -35.85 8.15 -35.85L15.4 -35.85Q19.45 -35.85 22.25 -32.95Q25.15 -30.15 25.15 -26.1Q25.15 -22.85 23.2 -20.25Q28.35 -17 28.35 -11Q28.35 -6.45 25.15 -3.2Q21.95 0 17.4 0L8.35 0L8.2 -0.05L8.15 0M11 -30.15L11 -21.95L15.4 -21.95Q17.1 -21.95 18.25 -23.2Q19.45 -24.4 19.45 -26.1Q19.45 -27.8 18.25 -28.95Q17.1 -30.15 15.4 -30.15L11 -30.15M11 -16.25L11 -5.65L17.4 -5.65Q19.6 -5.7 21.15 -7.25Q22.65 -8.8 22.65 -11Q22.65 -13.2 21.15 -14.75Q19.6 -16.2 17.4 -16.25L11 -16.25" />
</g>
<g id="PathID_4" transform="matrix(0.930375, 0, 0, 0.930375, 55.4, 170.7)" opacity="1">
</g>
<g id="PathID_5" transform="matrix(0.930375, 0, 0, 0.930375, 81.3, 170.7)" opacity="1">
<path style="fill:#A15B01;fill-opacity:1" d="M26.4 -2.7Q26.4 -1.55 25.6 -0.8Q24.8 0 23.7 0Q21.6 0 21.05 -2.2Q17.9 0 14.2 0Q9.1 0 5.5 -3.7Q2.05 -7.45 2.05 -12.75Q2.05 -18.1 5.5 -21.75Q9.1 -25.6 14.2 -25.6Q17.85 -25.6 21.05 -23.35Q21.6 -25.6 23.7 -25.6Q24.8 -25.6 25.6 -24.75Q26.4 -23.95 26.4 -22.8L26.4 -2.7M19 -7.45Q21 -9.6 21 -12.75Q21 -15.9 19 -18Q17.15 -20.1 14.2 -20.1Q11.25 -20.1 9.45 -18Q7.5 -15.95 7.5 -12.75Q7.5 -9.55 9.45 -7.45Q11.3 -5.45 14.2 -5.45Q17.1 -5.45 19 -7.45" />
</g>
<g id="PathID_6" transform="matrix(0.930375, 0, 0, 0.930375, 81.3, 170.7)" opacity="1">
</g>
<g id="PathID_7" transform="matrix(0.930375, 0, 0, 0.930375, 108.4, 170.7)" opacity="1">
<path style="fill:#A15B01;fill-opacity:1" d="M4.75 -33.05Q4.75 -34.2 5.55 -35Q6.4 -35.85 7.5 -35.85Q8.7 -35.85 9.5 -35Q10.35 -34.2 10.35 -33.05L10.35 -23.45Q13.4 -25.6 17.2 -25.6Q22.35 -25.6 26 -21.8Q29.65 -18 29.65 -12.75Q29.65 -7.5 26 -3.8Q22.35 0 17.2 0Q13.45 0 10.25 -2.2Q9.75 0 7.5 0Q6.4 0 5.55 -0.8Q4.75 -1.65 4.75 -2.75L4.75 -33.05M12.4 -17.9Q10.35 -15.85 10.35 -12.75Q10.35 -9.7 12.4 -7.65Q14.35 -5.55 17.2 -5.55Q20 -5.55 22 -7.65Q24.05 -9.7 24.05 -12.75Q24.05 -15.85 22 -17.9Q20 -20 17.2 -20Q14.35 -20 12.4 -17.9" />
</g>
<g id="PathID_8" transform="matrix(0.930375, 0, 0, 0.930375, 108.4, 170.7)" opacity="1">
</g>
<g id="PathID_9" transform="matrix(0.930375, 0, 0, 0.930375, 137.45, 170.7)" opacity="1">
<path style="fill:#A15B01;fill-opacity:1" d="M26.4 -2.7Q26.4 -1.55 25.6 -0.8Q24.8 0 23.7 0Q21.6 0 21.05 -2.2Q17.9 0 14.2 0Q9.1 0 5.5 -3.7Q2.05 -7.45 2.05 -12.75Q2.05 -18.1 5.5 -21.75Q9.1 -25.6 14.2 -25.6Q17.85 -25.6 21.05 -23.35Q21.6 -25.6 23.7 -25.6Q24.8 -25.6 25.6 -24.75Q26.4 -23.95 26.4 -22.8L26.4 -2.7M19 -7.45Q21 -9.6 21 -12.75Q21 -15.9 19 -18Q17.15 -20.1 14.2 -20.1Q11.25 -20.1 9.45 -18Q7.5 -15.95 7.5 -12.75Q7.5 -9.55 9.45 -7.45Q11.3 -5.45 14.2 -5.45Q17.1 -5.45 19 -7.45" />
</g>
<g id="PathID_10" transform="matrix(0.930375, 0, 0, 0.930375, 137.45, 170.7)" opacity="1">
</g>
<g id="PathID_11" transform="matrix(0.930375, 0, 0, 0.930375, 174.05, 171.95)" opacity="1">
<path style="fill:#FBAA41;fill-opacity:1" d="M20.25 0.7Q11.6 0.7 7.1 -4.1Q2.55 -8.9 2.55 -17.75Q2.55 -22.15 3.95 -25.6Q5.3 -29.05 7.7 -31.45Q10.15 -33.85 13.45 -35.05Q16.8 -36.3 20.65 -36.3Q22.95 -36.3 24.75 -35.95Q26.6 -35.6 28 -35.2Q29.4 -34.75 30.3 -34.3L31.65 -33.55L29.35 -27.1Q27.7 -28 25.5 -28.6Q23.35 -29.2 20.55 -29.2Q18.75 -29.2 16.95 -28.6Q15.2 -28 13.85 -26.65Q12.5 -25.3 11.65 -23.15Q10.85 -21 10.85 -17.9Q10.85 -15.45 11.4 -13.35Q11.9 -11.2 13.1 -9.65Q14.3 -8.15 16.25 -7.25Q18.2 -6.35 21 -6.35Q22.7 -6.35 24.1 -6.55Q25.5 -6.75 26.55 -7.05Q27.65 -7.3 28.45 -7.65L29.95 -8.35L32.15 -1.95Q30.45 -0.9 27.4 -0.1Q24.3 0.7 20.25 0.7" />
</g>
<g id="PathID_12" transform="matrix(0.930375, 0, 0, 0.930375, 174.05, 171.95)" opacity="1">
</g>
<g id="PathID_13" transform="matrix(0.930375, 0, 0, 0.930375, 202.5, 171.95)" opacity="1">
<path style="fill:#FBAA41;fill-opacity:1" d="M13.85 -5.3L16 -5.35L17.65 -5.5L17.65 -11.3L16.25 -11.5L14.6 -11.6Q13.5 -11.6 12.55 -11.5Q11.6 -11.35 10.9 -11Q10.2 -10.65 9.75 -10Q9.35 -9.4 9.35 -8.5Q9.35 -6.7 10.55 -6Q11.75 -5.3 13.85 -5.3M13.25 -27.65Q16.65 -27.65 18.9 -26.85Q21.15 -26.1 22.5 -24.65Q23.85 -23.25 24.4 -21.2Q24.95 -19.15 24.95 -16.65L24.95 -0.75Q23.35 -0.4 20.4 0.05Q17.5 0.55 13.35 0.55Q10.75 0.55 8.6 0.1Q6.5 -0.35 4.95 -1.4Q3.4 -2.45 2.6 -4.15Q1.8 -5.8 1.8 -8.3Q1.8 -10.65 2.75 -12.3Q3.65 -13.9 5.25 -14.9Q6.85 -15.85 8.9 -16.3Q10.95 -16.75 13.15 -16.75Q14.65 -16.75 15.8 -16.6Q16.95 -16.45 17.65 -16.25L17.65 -17Q17.65 -18.95 16.45 -20.1Q15.3 -21.3 12.4 -21.3Q10.45 -21.3 8.55 -21Q6.65 -20.7 5.25 -20.2L4.3 -26.35L5.95 -26.8L8.15 -27.2Q9.3 -27.4 10.6 -27.5Q11.9 -27.65 13.25 -27.65" />
</g>
<g id="PathID_14" transform="matrix(0.930375, 0, 0, 0.930375, 202.5, 171.95)" opacity="1">
</g>
<g id="PathID_15" transform="matrix(0.930375, 0, 0, 0.930375, 226.45, 171.95)" opacity="1">
<path style="fill:#FBAA41;fill-opacity:1" d="M19.8 -20.15L17.4 -20.7Q16 -21 14.45 -21Q13.7 -21 12.7 -20.85L11.2 -20.55L11.2 0L3.55 0L3.55 -25.5Q5.6 -26.2 8.4 -26.85Q11.2 -27.5 14.65 -27.5L16.1 -27.4Q17 -27.35 17.85 -27.2L19.6 -26.9Q20.45 -26.7 21.1 -26.45L19.8 -20.15" />
</g>
<g id="PathID_16" transform="matrix(0.930375, 0, 0, 0.930375, 226.45, 171.95)" opacity="1">
</g>
<g id="PathID_17" transform="matrix(0.930375, 0, 0, 0.930375, 244.15, 171.95)" opacity="1">
<path style="fill:#FBAA41;fill-opacity:1" d="M20.85 -13.25Q20.85 -16.8 19.25 -18.9Q17.65 -21.05 14.55 -21.05Q13.5 -21.05 12.65 -20.95Q11.75 -20.9 11.2 -20.75L11.2 -7Q11.9 -6.55 13.05 -6.25Q14.2 -5.95 15.4 -5.95Q20.85 -5.95 20.85 -13.25M28.6 -13.45Q28.6 -10.35 27.85 -7.75Q27.05 -5.2 25.6 -3.35Q24.1 -1.5 21.9 -0.5Q19.7 0.5 16.85 0.5Q15.25 0.5 13.85 0.2Q12.5 -0.1 11.2 -0.65L11.2 9.45L3.55 9.45L3.55 -26L5.95 -26.6L8.7 -27.05Q10.2 -27.3 11.7 -27.4Q13.2 -27.55 14.6 -27.55Q17.9 -27.55 20.5 -26.55Q23.15 -25.55 24.9 -23.7Q26.7 -21.9 27.65 -19.3Q28.6 -16.7 28.6 -13.45" />
</g>
<g id="PathID_18" transform="matrix(0.930375, 0, 0, 0.930375, 244.15, 171.95)" opacity="1">
</g>
<g id="PathID_19" transform="matrix(0.930375, 0, 0, 0.930375, 270.45, 171.95)" opacity="1">
<path style="fill:#FBAA41;fill-opacity:1" d="M2.3 -13.25Q2.3 -16.85 3.4 -19.5Q4.5 -22.2 6.3 -24Q8.1 -25.8 10.4 -26.7Q12.75 -27.65 15.2 -27.65Q20.95 -27.65 24.25 -24.15Q27.6 -20.6 27.6 -13.8L27.55 -12.35L27.45 -10.95L10.15 -10.95Q10.4 -8.6 12.35 -7.2Q14.25 -5.8 17.55 -5.8Q19.65 -5.8 21.65 -6.2Q23.7 -6.6 24.95 -7.15L26 -0.95Q25.4 -0.65 24.35 -0.35Q23.35 -0.05 22.1 0.15Q20.85 0.4 19.4 0.55Q17.95 0.7 16.55 0.7Q12.9 0.7 10.2 -0.35Q7.5 -1.4 5.75 -3.3Q4 -5.15 3.15 -7.7Q2.3 -10.3 2.3 -13.25M20.2 -16.15Q20.15 -17.15 19.9 -18.05Q19.6 -19 19 -19.7Q18.4 -20.4 17.5 -20.9Q16.65 -21.35 15.3 -21.35Q14 -21.35 13.1 -20.9Q12.15 -20.45 11.55 -19.75Q10.95 -19.05 10.6 -18.1Q10.3 -17.15 10.15 -16.15L20.2 -16.15" />
</g>
<g id="PathID_20" transform="matrix(0.930375, 0, 0, 0.930375, 270.45, 171.95)" opacity="1">
</g>
<g id="PathID_21" transform="matrix(0.930375, 0, 0, 0.930375, 295.9, 171.95)" opacity="1">
<path style="fill:#FBAA41;fill-opacity:1" d="M3.55 -26Q5.5 -26.55 8.6 -27.05Q11.65 -27.55 15.05 -27.55Q18.45 -27.55 20.75 -26.65Q23.05 -25.75 24.35 -24.1Q25.7 -22.45 26.25 -20.2Q26.8 -17.95 26.8 -15.2L26.8 0L19.2 0L19.2 -14.25Q19.2 -17.95 18.2 -19.5Q17.25 -21.05 14.6 -21.05L12.85 -20.95Q11.9 -20.9 11.2 -20.75L11.2 0L3.55 0L3.55 -26" />
</g>
<g id="PathID_22" transform="matrix(0.930375, 0, 0, 0.930375, 295.9, 171.95)" opacity="1">
</g>
<g id="PathID_23" transform="matrix(0.930375, 0, 0, 0.930375, 321.55, 171.95)" opacity="1">
<path style="fill:#FBAA41;fill-opacity:1" d="M3.3 -33.65L10.95 -34.85L10.95 -26.9L20.1 -26.9L20.1 -20.55L10.95 -20.55L10.95 -11.1Q10.95 -8.7 11.8 -7.25Q12.65 -5.8 15.2 -5.8Q16.4 -5.8 17.75 -6.05Q19.05 -6.3 20.1 -6.7L21.2 -0.75Q19.8 -0.2 18.1 0.2Q16.4 0.6 13.95 0.6Q10.85 0.6 8.8 -0.2Q6.75 -1.05 5.5 -2.55Q4.3 -4.1 3.8 -6.25Q3.3 -8.4 3.3 -11L3.3 -33.65" />
</g>
<g id="PathID_24" transform="matrix(0.930375, 0, 0, 0.930375, 321.55, 171.95)" opacity="1">
</g>
<g id="PathID_25" transform="matrix(0.930375, 0, 0, 0.930375, 340.3, 171.95)" opacity="1">
<path style="fill:#FBAA41;fill-opacity:1" d="M13.85 -5.3L16 -5.35L17.65 -5.5L17.65 -11.3L16.25 -11.5L14.6 -11.6Q13.5 -11.6 12.55 -11.5Q11.6 -11.35 10.9 -11Q10.2 -10.65 9.75 -10Q9.35 -9.4 9.35 -8.5Q9.35 -6.7 10.55 -6Q11.75 -5.3 13.85 -5.3M13.25 -27.65Q16.65 -27.65 18.9 -26.85Q21.15 -26.1 22.5 -24.65Q23.85 -23.25 24.4 -21.2Q24.95 -19.15 24.95 -16.65L24.95 -0.75Q23.35 -0.4 20.4 0.05Q17.5 0.55 13.35 0.55Q10.75 0.55 8.6 0.1Q6.5 -0.35 4.95 -1.4Q3.4 -2.45 2.6 -4.15Q1.8 -5.8 1.8 -8.3Q1.8 -10.65 2.75 -12.3Q3.65 -13.9 5.25 -14.9Q6.85 -15.85 8.9 -16.3Q10.95 -16.75 13.15 -16.75Q14.65 -16.75 15.8 -16.6Q16.95 -16.45 17.65 -16.25L17.65 -17Q17.65 -18.95 16.45 -20.1Q15.3 -21.3 12.4 -21.3Q10.45 -21.3 8.55 -21Q6.65 -20.7 5.25 -20.2L4.3 -26.35L5.95 -26.8L8.15 -27.2Q9.3 -27.4 10.6 -27.5Q11.9 -27.65 13.25 -27.65" />
</g>
<g id="PathID_26" transform="matrix(0.930375, 0, 0, 0.930375, 340.3, 171.95)" opacity="1">
</g>
<g id="PathID_27" transform="matrix(0.930375, 0, 0, 0.930375, 364.25, 171.95)" opacity="1">
<path style="fill:#FBAA41;fill-opacity:1" d="M19.8 -20.15L17.4 -20.7Q16 -21 14.45 -21Q13.7 -21 12.7 -20.85L11.2 -20.55L11.2 0L3.55 0L3.55 -25.5Q5.6 -26.2 8.4 -26.85Q11.2 -27.5 14.65 -27.5L16.1 -27.4Q17 -27.35 17.85 -27.2L19.6 -26.9Q20.45 -26.7 21.1 -26.45L19.8 -20.15" />
</g>
<g id="PathID_28" transform="matrix(0.930375, 0, 0, 0.930375, 364.25, 171.95)" opacity="1">
</g>
<g id="PathID_29" transform="matrix(0.930375, 0, 0, 0.930375, 381.9, 171.95)" opacity="1">
<path style="fill:#FBAA41;fill-opacity:1" d="M27.5 -26.9Q25.2 -19.15 22.65 -12.35Q20.15 -5.5 17.2 0.85Q16.1 3.15 15.05 4.75Q13.95 6.4 12.7 7.45Q11.4 8.5 9.8 8.95Q8.2 9.45 6.05 9.45Q4.25 9.45 2.75 9.15Q1.2 8.8 0.25 8.4L1.55 2.3Q2.75 2.7 3.65 2.85Q4.6 3 5.6 3Q7.65 3 8.75 1.9Q9.85 0.8 10.65 -1.1Q8.05 -6.25 5.4 -12.6Q2.8 -19 0.5 -26.9L8.6 -26.9Q9.1 -24.9 9.8 -22.6L11.25 -17.9L12.8 -13.25L14.3 -9.15Q15 -11 15.7 -13.25L17.1 -17.9L18.45 -22.6L19.6 -26.9L27.5 -26.9" />
</g>
<g id="PathID_30" transform="matrix(0.930375, 0, 0, 0.930375, 381.9, 171.95)" opacity="1">
</g>
<g id="PathID_31" transform="matrix(1.19189, 0, 0, 1.19189, -160.55, -532.9)" opacity="1">
<path style="fill:#A15B01;fill-opacity:1" d="M288.25 471.5L336.8 501.5L319.75 552.2L278.65 525.9L288.25 471.5" />
</g>
<g id="PathID_32" transform="matrix(1.19189, 0, 0, 1.19189, -160.55, -532.9)" opacity="1">
</g>
<g id="PathID_33" transform="matrix(1.19189, 0, 0, 1.19189, -160.55, -532.9)" opacity="1">
<path style="fill:#FDD21C;fill-opacity:1" d="M322.15 456L342.6 469.1L324.55 477.45L347.55 490.1L336.85 501.5L287.85 471.45L322.15 456" />
</g>
<g id="PathID_34" transform="matrix(1.19189, 0, 0, 1.19189, -160.55, -532.9)" opacity="1">
</g>
<g id="PathID_35" transform="matrix(1.19189, 0, 0, 1.19189, -160.55, -532.9)" opacity="1">
<path style="fill:#F78D03;fill-opacity:1" d="M319.7 551.95L319.6 552L319.6 551.9L319.7 551.95M319.85 551.9L329.85 497.7L347.55 490.15L341.15 526.7L360.1 518.15L357.1 535.2L320.3 552L319.85 551.9" />
</g>
<g id="PathID_36" transform="matrix(1.19189, 0, 0, 1.19189, -160.55, -532.9)" opacity="1">
</g>
<g id="PathID_37" transform="matrix(1.19189, 0, 0, 1.19189, -160.55, -532.9)" opacity="1">
<path style="fill:#A15B01;fill-opacity:1" d="M342.55 469.1L339.6 485.8L324.55 477.45L342.55 469.1" />
</g>
<g id="PathID_38" transform="matrix(1.19189, 0, 0, 1.19189, -160.55, -532.9)" opacity="1">
</g>
<g id="PathID_39" transform="matrix(1.19189, 0, 0, 1.19189, -160.55, -532.9)" opacity="1">
<path style="fill:#A15B01;fill-opacity:1" d="M360.15 518.1L341.15 526.85L344.35 507.9L360.15 518.1" />
</g>
<g id="PathID_40" transform="matrix(1.19189, 0, 0, 1.19189, -160.55, -532.9)" opacity="1">
</g>
<g id="PathID_41" transform="matrix(1.19189, 0, 0, 1.19189, -160.55, -532.9)" opacity="1">
<path style="fill:#FDD21C;fill-opacity:1" d="M349.35 481.9L358 478.6L363.2 482.05L355.45 485.8L349.35 481.9" />
</g>
<g id="PathID_42" transform="matrix(1.19189, 0, 0, 1.19189, -160.55, -532.9)" opacity="1">
</g>
<g id="PathID_43" transform="matrix(1.19189, 0, 0, 1.19189, -160.55, -532.9)" opacity="1">
<path style="fill:#A15B01;fill-opacity:1" d="M355.4 485.85L363.15 482.1L359.75 501.45L351.85 506.25L355.4 485.85" />
</g>
<g id="PathID_44" transform="matrix(1.19189, 0, 0, 1.19189, -160.55, -532.9)" opacity="1">
</g>
<g id="PathID_45" transform="matrix(1.19189, 0, 0, 1.19189, -160.55, -532.9)" opacity="1">
<path style="fill:#FFFFFF;fill-opacity:1" d="M303.25 498.55L310.95 503.4L306.55 529.3L295.15 519.95L303.25 498.55" />
</g>
<g id="PathID_46" transform="matrix(1.19189, 0, 0, 1.19189, -160.55, -532.9)" opacity="1">
</g>
<g id="PathID_47" transform="matrix(1.19189, 0, 0, 1.19189, -160.55, -532.9)" opacity="1">
<path style="fill:#FBC073;fill-opacity:1" d="M299.05 495.85L304.05 499L300.4 519.75L307.5 524.1L306.6 529.3L294.4 522.2L299.05 495.85" />
</g>
<g id="PathID_48" transform="matrix(1.19189, 0, 0, 1.19189, -160.55, -532.9)" opacity="1">
</g>
</svg>
