<?xml version="1.0" encoding="utf-8"?>
<svg version="1.1" id="Layer_1"
xmlns="http://www.w3.org/2000/svg"
xmlns:xlink="http://www.w3.org/1999/xlink"
width="620px" height="150px"
xml:space="preserve">
<g id="PathID_1" transform="matrix(2.22793, 0, 0, 2.22793, 151.45, 120.35)" opacity="1">
<path style="fill:#0D0725;fill-opacity:1" d="M20.25 0.7Q11.6 0.7 7.1 -4.1Q2.55 -8.9 2.55 -17.75Q2.55 -22.15 3.95 -25.6Q5.3 -29.05 7.7 -31.45Q10.15 -33.85 13.45 -35.05Q16.8 -36.3 20.65 -36.3Q22.95 -36.3 24.75 -35.95Q26.6 -35.6 28 -35.2Q29.4 -34.75 30.3 -34.3L31.65 -33.55L29.35 -27.1Q27.7 -28 25.5 -28.6Q23.35 -29.2 20.55 -29.2Q18.75 -29.2 16.95 -28.6Q15.2 -28 13.85 -26.65Q12.5 -25.3 11.65 -23.15Q10.85 -21 10.85 -17.9Q10.85 -15.45 11.4 -13.35Q11.9 -11.2 13.1 -9.65Q14.3 -8.15 16.25 -7.25Q18.2 -6.35 21 -6.35Q22.7 -6.35 24.1 -6.55Q25.5 -6.75 26.55 -7.05Q27.65 -7.3 28.45 -7.65L29.95 -8.35L32.15 -1.95Q30.45 -0.9 27.4 -0.1Q24.3 0.7 20.25 0.7" />
</g>
<g id="PathID_2" transform="matrix(2.22793, 0, 0, 2.22793, 151.45, 120.35)" opacity="1">
</g>
<g id="PathID_3" transform="matrix(2.22793, 0, 0, 2.22793, 218.65, 120.35)" opacity="1">
<path style="fill:#0D0725;fill-opacity:1" d="M28.75 -13.5Q28.75 -10.35 27.85 -7.7Q26.9 -5.05 25.2 -3.2Q23.45 -1.3 21 -0.3Q18.55 0.7 15.55 0.7Q12.6 0.7 10.15 -0.3Q7.7 -1.3 6 -3.2Q4.25 -5.05 3.25 -7.7Q2.3 -10.35 2.3 -13.5Q2.3 -16.7 3.3 -19.3Q4.3 -21.9 6.05 -23.75Q7.8 -25.6 10.25 -26.6Q12.7 -27.65 15.55 -27.65Q18.45 -27.65 20.9 -26.6Q23.35 -25.6 25.1 -23.75Q26.8 -21.9 27.8 -19.3Q28.75 -16.7 28.75 -13.5M21 -13.5Q21 -17.05 19.55 -19.05Q18.15 -21.1 15.55 -21.1Q12.95 -21.1 11.5 -19.05Q10.05 -17.05 10.05 -13.5Q10.05 -9.95 11.5 -7.9Q12.95 -5.8 15.55 -5.8Q18.15 -5.8 19.55 -7.9Q21 -9.95 21 -13.5" />
</g>
<g id="PathID_4" transform="matrix(2.22793, 0, 0, 2.22793, 218.65, 120.35)" opacity="1">
</g>
<g id="PathID_5" transform="matrix(2.22793, 0, 0, 2.22793, 281.2, 120.35)" opacity="1">
<path style="fill:#0D0725;fill-opacity:1" d="M10.05 -13.65Q10.05 -10.1 11.65 -7.95Q13.25 -5.8 16.35 -5.8Q17.4 -5.8 18.25 -5.9L19.7 -6.1L19.7 -19.95Q19 -20.4 17.85 -20.7Q16.7 -21.05 15.5 -21.05Q10.05 -21.05 10.05 -13.65M27.35 -0.85L24.95 -0.25L22.2 0.2L19.2 0.55L16.3 0.65Q13 0.65 10.4 -0.3Q7.75 -1.25 6 -3.1Q4.2 -4.9 3.25 -7.5Q2.3 -10.05 2.3 -13.3Q2.3 -16.6 3.1 -19.2Q3.95 -21.85 5.45 -23.7Q7 -25.55 9.25 -26.5Q11.45 -27.5 14.3 -27.5Q15.9 -27.5 17.15 -27.15Q18.4 -26.85 19.7 -26.3L19.7 -38.5L27.35 -39.7L27.35 -0.85" />
</g>
<g id="PathID_6" transform="matrix(2.22793, 0, 0, 2.22793, 281.2, 120.35)" opacity="1">
</g>
<g id="PathID_7" transform="matrix(2.22793, 0, 0, 2.22793, 343.3, 120.35)" opacity="1">
<path style="fill:#0D0725;fill-opacity:1" d="M2.3 -13.25Q2.3 -16.85 3.4 -19.5Q4.5 -22.2 6.3 -24Q8.1 -25.8 10.4 -26.7Q12.75 -27.65 15.2 -27.65Q20.95 -27.65 24.25 -24.15Q27.6 -20.6 27.6 -13.8L27.55 -12.35L27.45 -10.95L10.15 -10.95Q10.4 -8.6 12.35 -7.2Q14.25 -5.8 17.55 -5.8Q19.65 -5.8 21.65 -6.2Q23.7 -6.6 24.95 -7.15L26 -0.95Q25.4 -0.65 24.35 -0.35Q23.35 -0.05 22.1 0.15Q20.85 0.4 19.4 0.55Q17.95 0.7 16.55 0.7Q12.9 0.7 10.2 -0.35Q7.5 -1.4 5.75 -3.3Q4 -5.15 3.15 -7.7Q2.3 -10.3 2.3 -13.25M20.2 -16.15Q20.15 -17.15 19.9 -18.05Q19.6 -19 19 -19.7Q18.4 -20.4 17.5 -20.9Q16.65 -21.35 15.3 -21.35Q14 -21.35 13.1 -20.9Q12.15 -20.45 11.55 -19.75Q10.95 -19.05 10.6 -18.1Q10.3 -17.15 10.15 -16.15L20.2 -16.15" />
</g>
<g id="PathID_8" transform="matrix(2.22793, 0, 0, 2.22793, 343.3, 120.35)" opacity="1">
</g>
<g id="PathID_9" transform="matrix(-0.00380405, -0.444685, 0.444685, -0.00380405, -257.75, 218.2)" opacity="1">
<linearGradient
id="LinearGradID_1" gradientUnits="userSpaceOnUse" gradientTransform="matrix(-5.73338e-009, 0.131165, -0.131165, -5.73338e-009, 306.95, 761.95)" spreadMethod ="pad" x1="-819.2" y1="0" x2="819.2" y2="0" >
<stop  offset="0" style="stop-color:#0A0521;stop-opacity:1" />
<stop  offset="0.505882" style="stop-color:#514586;stop-opacity:1" />
<stop  offset="1" style="stop-color:#290DA6;stop-opacity:1" />
</linearGradient>
<path style="fill:url(#LinearGradID_1) " d="M269.55 702.6Q262.7 705.3 257.25 710.1Q251.8 714.9 248.35 721.75Q244.9 728.55 244.5 737.25L244.5 784.5Q244.95 791.65 247.55 798.55Q250.2 805.5 255.05 811.05Q259.95 816.65 267.1 820.25Q274.3 823.9 283.9 824.45L284.1 824.45L285.05 824.45L287.35 824.45L291.5 824.4Q306.65 824.05 314 831.05Q321.3 838 322.45 846.55Q323.55 855.05 319.25 862.2Q315 869.4 306.95 869.4L243.5 869.4Q234.35 869.4 226.35 865.9Q218.3 862.45 212.35 856.5Q206.4 850.5 202.95 842.5Q199.5 834.5 199.5 825.4L199.5 698.5Q199.5 689.35 202.95 681.35Q206.4 673.3 212.35 667.35Q218.35 661.4 226.35 657.95Q234.35 654.5 243.5 654.5L370.4 654.5Q379.5 654.5 387.5 657.95Q395.55 661.4 401.5 667.35Q407.45 673.35 410.9 681.35Q414.4 689.35 414.4 698.5L414.4 706.55L414.4 725.8L414.4 748.9L414.4 768.5Q414.4 779 407.5 783.8Q400.6 788.65 392.3 787.25Q383.95 785.85 376.85 778Q369.75 770.15 369.3 755.25Q369.05 748.5 369.05 743.55L369.1 735.45L369.3 730.65L369.4 729.15Q369.5 722.25 367 716.7Q364.55 711.15 359.9 707.3Q355.25 703.45 348.75 701.4Q342.2 699.4 334.25 699.5L283.75 699.5Q276.45 699.9 269.55 702.6" />
</g>
<g id="PathID_10" transform="matrix(-0.00380405, -0.444685, 0.444685, -0.00380405, -257.75, 218.2)" opacity="1">
</g>
<g id="PathID_11" transform="matrix(2.50043, 0, 0, 2.50043, 405.75, 117.3)" opacity="1">
<path style="fill:#26146E;fill-opacity:1" d="M4.4 0L4.4 -35.45L25.8 -35.45L25.8 -31.2L9.35 -31.2L9.35 -20.5L23.95 -20.5L23.95 -16.3L9.35 -16.3L9.35 0L4.4 0" />
</g>
<g id="PathID_12" transform="matrix(2.50043, 0, 0, 2.50043, 405.75, 117.3)" opacity="1">
</g>
<g id="PathID_13" transform="matrix(2.50043, 0, 0, 2.50043, 466.95, 117.3)" opacity="1">
<path style="fill:#26146E;fill-opacity:1" d="M0.95 4.95Q1.5 5.2 2.4 5.45Q3.3 5.65 4.2 5.65Q7 5.65 8.6 4.4Q10.2 3.15 11.45 0.35Q8.25 -5.75 5.45 -12.65Q2.65 -19.55 0.8 -26.6L5.95 -26.6Q6.5 -24.3 7.3 -21.65L9.05 -16.15Q10 -13.35 11.15 -10.55Q12.3 -7.7 13.5 -5.1Q15.45 -10.5 16.9 -15.75Q18.3 -21.05 19.6 -26.6L24.5 -26.6Q22.65 -19.1 20.4 -12.15Q18.15 -5.2 15.55 0.8Q14.55 3.1 13.45 4.75Q12.35 6.45 11 7.5Q9.65 8.6 8 9.1Q6.35 9.6 4.25 9.6L3.05 9.55L1.85 9.35L0.8 9.05L0.1 8.8L0.95 4.95" />
</g>
<g id="PathID_14" transform="matrix(2.50043, 0, 0, 2.50043, 466.95, 117.3)" opacity="1">
</g>
<g id="PathID_15" transform="matrix(2.50043, 0, 0, 2.50043, 523.05, 117.3)" opacity="1">
<path style="fill:#26146E;fill-opacity:1" d="M4.1 -25.85Q5.7 -26.25 8.45 -26.7Q11.15 -27.15 14.7 -27.15Q17.85 -27.15 19.95 -26.3Q22.05 -25.4 23.3 -23.75Q24.55 -22.15 25.1 -19.9Q25.6 -17.65 25.6 -14.95L25.6 0L20.85 0L20.85 -13.9Q20.85 -16.35 20.5 -18.1Q20.15 -19.85 19.4 -20.95Q18.6 -22 17.35 -22.5Q16.05 -23 14.15 -23L12.6 -22.9L11 -22.8L9.7 -22.6L8.85 -22.45L8.85 0L4.1 0L4.1 -25.85" />
</g>
<g id="PathID_16" transform="matrix(2.50043, 0, 0, 2.50043, 523.05, 117.3)" opacity="1">
</g>
<g id="PathID_17" transform="matrix(0.287623, 0, 0, 0.287623, 85.3, 18.55)" opacity="1">
<path style="fill:#0D0725;fill-opacity:1" d="M196.65 147.55L147.55 147.55L147.55 98.25L98.25 98.25L98.25 147.55L49.15 147.55L49.15 196.7L0 196.7L0 147.55L49.15 147.55L49.15 98.25L98.25 98.25L98.25 49.15L49.15 49.15L49.15 0L196.65 0L196.65 147.55" />
</g>
<g id="PathID_18" transform="matrix(0.287623, 0, 0, 0.287623, 85.3, 18.55)" opacity="1">
</g>
</svg>
