<?xml version="1.0" encoding="utf-8"?>
<svg version="1.1" id="Layer_1"
xmlns="http://www.w3.org/2000/svg"
xmlns:xlink="http://www.w3.org/1999/xlink"
width="500px" height="120px"
xml:space="preserve">
<g id="PathID_1" transform="matrix(2.45893, 0, 0.00690696, 2.45892, 10.05, 105.9)" opacity="1">
<path style="fill:#000000;fill-opacity:1" d="M36.75 -36.85L36.75 -31.35L8.5 -31.35L8.5 -21.2L31.2 -21.2L31.2 -15.65L8.5 -15.65L8.5 0L2.95 0L2.95 -36.85L36.75 -36.85" />
</g>
<g id="PathID_2" transform="matrix(2.45893, 0, 0.00690696, 2.45892, 10.05, 105.9)" opacity="1">
</g>
<g id="PathID_3" transform="matrix(2.45893, 0, 0.00690696, 2.45892, 100.8, 105.9)" opacity="1">
<path style="fill:#000000;fill-opacity:1" d="M2.65 -29.7L8.2 -29.7L8.2 0L2.65 0L2.65 -29.7M8.2 -39.4L8.2 -33.9L2.65 -33.9L2.65 -39.4L8.2 -39.4" />
</g>
<g id="PathID_4" transform="matrix(2.45893, 0, 0.00690696, 2.45892, 100.8, 105.9)" opacity="1">
</g>
<g id="PathID_5" transform="matrix(2.45893, 0, 0.00690696, 2.45892, 126.8, 105.9)" opacity="1">
<path style="fill:#000000;fill-opacity:1" d="M33.05 -29.7L33.05 -28.9L21.3 -15.1L33.05 -0.75L33.05 0L26.5 0L17.7 -10.8L8.9 0L2.35 0L2.35 -0.75L14.05 -15.1L2.35 -28.9L2.35 -29.7L8.9 -29.7L17.7 -19.4L26.5 -29.7L33.05 -29.7" />
</g>
<g id="PathID_6" transform="matrix(2.45893, 0, 0.00690696, 2.45892, 126.8, 105.9)" opacity="1">
</g>
<g id="PathID_7" transform="matrix(2.34607, 0, 0, 2.34607, 211.5, 102.95)" opacity="1">
<path style="fill:#FF3D00;fill-opacity:1" d="M26.15 -29.7Q27.55 -29.7 28.75 -29.2Q29.95 -28.65 30.85 -27.75Q31.8 -26.8 32.3 -25.6Q32.8 -24.4 32.8 -23.05L32.8 -12.05L8.1 -12.05L8.1 -6.65Q8.1 -6.2 8.45 -5.85Q8.8 -5.5 9.25 -5.5L32.8 -5.5L32.8 0L9.25 0Q7.85 0 6.65 -0.5Q5.45 -1 4.55 -1.95Q3.6 -2.85 3.1 -4.05Q2.6 -5.25 2.6 -6.65L2.6 -23.05Q2.6 -24.4 3.1 -25.6Q3.6 -26.8 4.55 -27.75Q5.45 -28.65 6.65 -29.2Q7.85 -29.7 9.25 -29.7L26.15 -29.7M27.3 -17.6L27.3 -23.05Q27.3 -23.5 26.95 -23.85Q26.6 -24.15 26.15 -24.15L9.25 -24.15Q8.8 -24.15 8.45 -23.85Q8.1 -23.5 8.1 -23.05L8.1 -17.6L27.3 -17.6" />
</g>
<g id="PathID_8" transform="matrix(2.34607, 0, 0, 2.34607, 211.5, 102.95)" opacity="1">
</g>
<g id="PathID_9" transform="matrix(2.34607, 0, 0, 2.34607, 294.55, 102.95)" opacity="1">
<path style="fill:#FF3D00;fill-opacity:1" d="M26.3 -29.7Q27.7 -29.7 28.9 -29.2Q30.1 -28.65 31 -27.75Q31.95 -26.8 32.45 -25.6Q32.95 -24.4 32.95 -23.05L32.95 0L27.45 0L27.45 -23.05Q27.45 -23.5 27.1 -23.85Q26.75 -24.15 26.3 -24.15L9.4 -24.15Q8.95 -24.15 8.6 -23.85Q8.3 -23.5 8.3 -23.05L8.3 0L2.75 0L2.75 -29.7L26.3 -29.7" />
</g>
<g id="PathID_10" transform="matrix(2.34607, 0, 0, 2.34607, 294.55, 102.95)" opacity="1">
</g>
<g id="PathID_11" transform="matrix(2.34607, 0, 0, 2.34607, 378.15, 102.95)" opacity="1">
<path style="fill:#FF3D00;fill-opacity:1" d="M2.65 -29.7L8.2 -29.7L8.2 0L2.65 0L2.65 -29.7M8.2 -39.4L8.2 -33.9L2.65 -33.9L2.65 -39.4L8.2 -39.4" />
</g>
<g id="PathID_12" transform="matrix(2.34607, 0, 0, 2.34607, 378.15, 102.95)" opacity="1">
</g>
<g id="PathID_13" transform="matrix(2.34607, 0, 0, 2.34607, 402.9, 102.95)" opacity="1">
<path style="fill:#FF3D00;fill-opacity:1" d="M33.05 -29.7L33.05 -28.9L21.3 -15.1L33.05 -0.75L33.05 0L26.5 0L17.7 -10.8L8.9 0L2.35 0L2.35 -0.75L14.05 -15.1L2.35 -28.9L2.35 -29.7L8.9 -29.7L17.7 -19.4L26.5 -29.7L33.05 -29.7" />
</g>
<g id="PathID_14" transform="matrix(2.34607, 0, 0, 2.34607, 402.9, 102.95)" opacity="1">
</g>
</svg>
